<svg width="57" height="53" viewBox="0 0 57 53" fill="none" xmlns="http://www.w3.org/2000/svg">
<path d="M0 10.5813C1.04706 9.55361 11.2074 -0.102589 28.8264 0.000824581C46.0899 0.136554 55.9336 9.59239 57 10.6782C56.5877 22.6351 51.5911 33.9751 43.0457 42.3485C38.2564 47.1572 32.769 50.3113 28.3093 52.7932C23.9983 50.1239 18.7242 47.3963 14.2193 42.6846C2.63703 30.5788 0.588162 17.1868 0 10.5813Z" fill="#5EBD84"/>
<path d="M30.229 41.0828H24.3215V18.4701L11.1234 33.6471L7.33594 29.1653L24.9614 8.88257L26.17 7.29102L30.2225 8.60882L30.229 41.0828Z" fill="white"/>
<path d="M31.4834 32.0038L30.9922 25.4339C35.174 25.122 43.0075 23.193 43.0075 19.9399C43.0075 14.8787 31.3735 14.8469 31.2636 14.8469V8.23242C40.1766 8.23242 49.697 11.3073 49.697 19.9399C49.6712 30.3932 33.3448 31.8702 31.4834 32.0038Z" fill="white"/>
<path d="M16.0506 23.3732L14.4531 27.7461L25.248 31.572L26.8454 27.1991L16.0506 23.3732Z" fill="white"/>
</svg>
