<svg version="1.1" id="Layer_1" xmlns="http://www.w3.org/2000/svg" x="0px" y="0px" width="352px" height="80px" viewBox="0 0 352 80" enable-background="new 0 0 352 80" xmlns:xlink="http://www.w3.org/1999/xlink" xml:space="preserve">
<g>
	<path fill="none" d="M162.369,70.592c-0.767,0-1.324,0.28-1.673,0.906c-0.418,0.559-0.557,1.464-0.557,2.579v0.487
		c0,1.115,0.209,1.951,0.627,2.578s0.976,0.906,1.673,0.906c0.696,0,1.324-0.279,1.672-0.906c0.418-0.627,0.627-1.463,0.627-2.578
		v-0.487c-0.069-1.185-0.279-2.021-0.697-2.579C163.623,70.941,163.066,70.592,162.369,70.592z"></path>
	<path fill="none" d="M74.216,4.181H70.87v15.261h3.345c0.906,0,1.672-0.278,2.3-0.975c0.627-0.627,0.975-1.463,0.975-2.37v-8.57
		l0.001-0.001c0-0.975-0.348-1.742-0.975-2.37C75.888,4.53,75.122,4.181,74.216,4.181z"></path>
	<path fill="none" d="M92.822,4.251c-0.976,0-1.742,0.348-2.37,0.975c-0.626,0.628-0.975,1.464-0.975,2.37v11.846h6.62V7.596
		c0-0.976-0.348-1.742-0.975-2.37C94.495,4.599,93.728,4.251,92.822,4.251z"></path>
	<path fill="none" d="M183.973,4.181h-3.275v15.261h3.275c0.905,0,1.672-0.348,2.299-0.975s0.976-1.394,0.976-2.3v-8.64V7.526
		c0-0.975-0.349-1.742-0.976-2.37C185.645,4.53,184.878,4.181,183.973,4.181z"></path>
	<path fill="none" d="M22.787,35.54c0,0.906,0.349,1.672,0.976,2.3c0.627,0.627,1.463,0.975,2.37,0.975
		c0.905,0,1.672-0.348,2.299-0.975c0.627-0.628,0.976-1.394,0.976-2.3V7.526h-0.001c0-0.975-0.348-1.742-0.975-2.37
		c-0.627-0.626-1.394-0.975-2.3-0.975c-0.975,0-1.742,0.349-2.37,0.976c-0.626,0.627-0.975,1.463-0.975,2.37V35.54z"></path>
	<path fill="none" d="M238.467,35.54c0,0.906,0.348,1.672,0.977,2.3c0.627,0.627,1.463,0.975,2.369,0.975
		c0.905,0,1.672-0.348,2.299-0.975c0.627-0.628,0.976-1.394,0.976-2.3V7.526c0-0.975-0.349-1.742-0.976-2.37
		c-0.627-0.626-1.394-0.975-2.299-0.975c-0.977,0-1.742,0.349-2.369,0.976c-0.629,0.627-0.977,1.463-0.977,2.37V35.54z"></path>
	<polygon fill="none" points="213.17,75.68 215.749,75.68 214.425,71.707 	"></polygon>
	<path fill="none" d="M0.697,0.627C1.045,0.21,1.533,0,2.09,0H0v40.836L0.07,2.091C0.07,1.533,0.279,1.045,0.697,0.627z"></path>
	<path fill="none" d="M9.826,37.77c0.627-0.627,0.975-1.394,0.975-2.3v-8.64c0-0.907-0.348-1.673-0.975-2.3
		c-0.627-0.628-1.394-0.976-2.3-0.976H4.181v15.192h3.345C8.432,38.746,9.199,38.397,9.826,37.77z"></path>
	<path fill="none" d="M9.826,18.397c0.627-0.627,0.975-1.463,0.975-2.37v-8.57V7.456c0-0.975-0.348-1.742-0.975-2.369
		s-1.394-0.975-2.3-0.975H4.181v15.26h3.345C8.432,19.372,9.199,19.094,9.826,18.397z"></path>
	<path fill="none" d="M74.216,23.624H70.87v15.191h3.345c0.906,0,1.672-0.348,2.3-0.975c0.627-0.628,0.975-1.394,0.975-2.3V26.9
		l0.001-0.001c0-0.906-0.348-1.672-0.975-2.3C75.888,23.972,75.122,23.624,74.216,23.624z"></path>
	<path fill="none" d="M289.826,4.181h-3.346v15.261h3.346c0.904,0,1.672-0.348,2.299-0.975s0.977-1.394,0.977-2.3v-8.64V7.526
		c0-0.975-0.35-1.742-0.977-2.37C291.498,4.53,290.73,4.181,289.826,4.181z"></path>
	<path fill="none" d="M307.178,4.251c-0.976,0-1.742,0.348-2.369,0.975c-0.627,0.628-0.976,1.464-0.976,2.37v11.846h6.62V7.596
		c0-0.976-0.348-1.742-0.977-2.37C308.85,4.599,308.084,4.251,307.178,4.251z"></path>
	<path fill="none" d="M241.813,0c1.045,0,2.021,0.21,2.856,0.557c0.906,0.419,1.673,0.906,2.369,1.603
		c0.696,0.697,1.255,1.464,1.603,2.37c0.35,0.906,0.559,1.881,0.559,2.926V35.47c0,1.046-0.209,2.021-0.559,2.927
		c-0.418,0.906-0.906,1.673-1.603,2.371c-0.696,0.695-1.463,1.184-2.369,1.602c-0.905,0.419-1.812,0.558-2.856,0.558
		s-2.021-0.21-2.928-0.558c-0.906-0.418-1.672-0.906-2.369-1.602c-0.697-0.698-1.255-1.464-1.603-2.371
		c-0.418-0.906-0.558-1.881-0.558-2.927V7.456c0-1.045,0.209-2.02,0.558-2.926c0.349-0.906,0.905-1.673,1.603-2.37
		c0.697-0.697,1.463-1.254,2.369-1.603C239.791,0.209,240.768,0,241.813,0h-38.258c0.278,0.07,0.487,0.21,0.696,0.418
		c0.209,0.21,0.278,0.488,0.278,0.697v2.09c0,0.697-0.348,1.046-1.045,1.046h-2.926v37.7c0,0.697-0.35,1.045-1.045,1.045h-2.092
		c-0.697,0-1.045-0.348-1.045-1.045l0.139-37.77h-2.927c-0.696,0-1.045-0.348-1.045-1.045v-2.09c0-0.28,0.07-0.489,0.279-0.698
		S193.241,0,193.589,0h-40.14c0.278,0,0.557,0.07,0.766,0.348c0.209,0.21,0.279,0.488,0.279,0.697v18.397h6.62V1.046
		c0-0.278,0.07-0.488,0.279-0.697s0.418-0.348,0.767-0.348h2.02c0.349,0.07,0.628,0.14,0.767,0.348l0-0.001
		c0.209,0.21,0.279,0.488,0.279,0.697l-0.07,40.837c0,0.696-0.348,1.045-1.045,1.045h-2.021c-0.697,0-1.045-0.349-1.045-1.045
		V23.554h-6.621v18.328c0,0.696-0.348,1.045-1.045,1.045h-2.091c-0.696,0-1.045-0.349-1.045-1.045l0.07-40.767v-0.07
		c0-0.278,0.07-0.488,0.279-0.697S151.01,0,151.358,0H26.133c1.045,0,2.021,0.21,2.857,0.557c0.906,0.419,1.673,0.976,2.37,1.673
		c0.697,0.697,1.254,1.463,1.602,2.37c0.419,0.905,0.558,1.88,0.558,2.926V35.54c0,1.045-0.21,2.021-0.557,2.927
		c-0.419,0.906-0.906,1.672-1.603,2.37c-0.697,0.696-1.464,1.185-2.37,1.603c-0.906,0.418-1.812,0.557-2.857,0.557
		c-1.045,0-2.02-0.209-2.927-0.557c-0.905-0.418-1.672-0.906-2.369-1.604c-0.697-0.697-1.254-1.463-1.603-2.37
		c-0.418-0.905-0.557-1.88-0.557-2.926V7.526c0-1.045,0.209-2.02,0.557-2.927c0.418-0.906,0.976-1.672,1.673-2.369
		c0.697-0.697,1.463-1.254,2.37-1.603C24.18,0.21,25.155,0,26.131,0H7.525c1.045,0,1.951,0.21,2.857,0.557
		c0.906,0.419,1.673,0.906,2.37,1.603c0.697,0.697,1.254,1.464,1.602,2.37c0.418,0.906,0.558,1.881,0.558,2.926v8.642h0.001
		c0,1.045-0.21,2.09-0.627,2.996c-0.418,0.906-0.976,1.742-1.742,2.44c0.696,0.696,1.324,1.463,1.672,2.368
		c0.418,0.906,0.627,1.882,0.627,2.997v8.641c0,1.045-0.209,2.021-0.557,2.857c-0.418,0.906-0.906,1.673-1.603,2.371
		c-0.697,0.695-1.463,1.184-2.37,1.602c-0.905,0.419-1.811,0.558-2.857,0.558H2.021c-0.558,0-1.045-0.21-1.464-0.558
		C0.21,41.951,0,41.463,0,40.836V80h112.474c-0.976,0-1.812-0.21-2.509-0.627c-0.697-0.418-1.254-1.046-1.603-1.882
		c-0.348-0.837-0.557-1.742-0.557-2.857v-0.627c0-1.114,0.209-2.021,0.557-2.856c0.349-0.836,0.906-1.465,1.603-1.883
		c0.697-0.418,1.533-0.627,2.439-0.627c0.906,0,1.742,0.141,2.369,0.488c0.628,0.348,1.185,0.836,1.533,1.395
		c0.349,0.627,0.558,1.254,0.628,2.09h-2.509c-0.07-0.697-0.209-1.184-0.558-1.463c-0.348-0.35-0.836-0.488-1.533-0.488
		c-0.697,0-1.254,0.279-1.602,0.836c-0.349,0.559-0.488,1.395-0.488,2.579v0.627c0,0.767,0.069,1.463,0.209,1.95
		c0.139,0.488,0.348,0.837,0.697,1.115c0.278,0.211,0.697,0.35,1.254,0.35c0.697,0,1.185-0.141,1.533-0.488
		c0.349-0.279,0.488-0.768,0.558-1.395h2.508c-0.069,0.627-0.278,1.324-0.627,1.883v-0.001c-0.348,0.558-0.906,1.046-1.533,1.394
		c-0.697,0.35-1.463,0.488-2.369,0.488h11.777c-0.491-0.071-0.958-0.2-1.394-0.418c-0.627-0.279-1.184-0.768-1.533-1.395
		c-0.348-0.627-0.557-1.323-0.557-2.16V68.71h2.508v7.317c0,1.324,0.627,2.02,1.882,2.02c0.627,0,1.045-0.139,1.394-0.486
		c0.278-0.349,0.487-0.836,0.487-1.533V68.71h2.509v7.317h-0.07c0,0.836-0.209,1.604-0.557,2.16
		c-0.349,0.627-0.836,1.047-1.533,1.395c-0.419,0.187-0.905,0.336-1.429,0.418h36.411c-0.976,0-1.812-0.21-2.509-0.697
		c-0.697-0.418-1.324-1.045-1.672-1.881c-0.418-0.837-0.627-1.813-0.627-2.927v-0.488c0-1.114,0.209-2.09,0.627-2.927
		c0.418-0.836,0.975-1.463,1.672-1.881c0.697-0.418,1.533-0.697,2.509-0.697c0.906,0,1.742,0.209,2.509,0.697
		c0.696,0.418,1.324,1.045,1.672,1.881c0.418,0.836,0.627,1.813,0.627,2.927v0.488c0,1.114-0.209,2.09-0.627,2.927
		c-0.418,0.836-0.976,1.463-1.672,1.881c-0.697,0.418-1.533,0.697-2.509,0.697h188.852V16.167c0,1.742-0.488,3.206-1.533,4.53
		c-1.047,1.324-2.301,2.16-3.834,2.648v18.676c0,0.278-0.069,0.557-0.348,0.767c-0.209,0.209-0.488,0.278-0.697,0.278h-2.091
		c-0.696,0-1.045-0.349-1.045-1.045V23.345c-1.603-0.488-2.856-1.324-3.903-2.648c-0.975-1.324-1.533-2.788-1.533-4.53V1.115
		c0-0.279,0.07-0.488,0.279-0.697s0.418-0.348,0.768-0.348h2.09c0.279,0,0.559,0.07,0.768,0.348c0.209,0.21,0.277,0.488,0.277,0.697
		v15.052c0,0.906,0.35,1.673,0.977,2.3s1.463,0.976,2.369,0.976c0.905,0,1.672-0.349,2.299-0.976s0.977-1.394,0.977-2.3V1.115
		c0-0.279,0.068-0.488,0.277-0.697s0.42-0.348,0.768-0.348h2.091c0.349,0.07,0.558,0.14,0.767,0.348
		c0.209,0.21,0.279,0.488,0.279,0.697V0H241.813z M62.997,41.881c0,0.28-0.14,0.559-0.349,0.768s-0.418,0.278-0.696,0.278H59.86
		c-0.697,0-1.045-0.349-1.045-1.045V7.526c0-0.975-0.349-1.742-0.976-2.37c-0.557-0.626-1.394-0.975-2.37-0.975
		c-0.905,0-1.672,0.349-2.299,0.976c-0.627,0.627-0.975,1.463-0.975,2.37v34.355c0,0.696-0.349,1.045-1.046,1.045h-2.09
		c-0.697,0-1.046-0.349-1.046-1.045V7.526c0-0.975-0.348-1.742-0.975-2.37c-0.628-0.626-1.394-0.975-2.3-0.975
		c-0.976,0-1.742,0.349-2.37,0.976c-0.627,0.627-0.975,1.463-0.975,2.37v34.355c0,0.696-0.348,1.045-1.045,1.045h-2.09
		c-0.28,0-0.489-0.069-0.698-0.278s-0.348-0.418-0.348-0.768V7.527c0-1.045,0.209-2.02,0.557-2.927
		c0.418-0.906,0.906-1.672,1.603-2.369c0.697-0.697,1.464-1.254,2.37-1.603c0.906-0.418,1.881-0.558,2.927-0.558
		s2.021,0.209,2.927,0.627c1.046,0.348,1.882,0.906,2.579,1.672c0.696-0.766,1.463-1.324,2.439-1.742
		C53.52,0.28,54.495,0.07,55.54,0.07c1.046,0,2.021,0.209,2.927,0.557c0.906,0.418,1.673,0.906,2.37,1.603
		c0.696,0.697,1.254,1.463,1.602,2.37c0.419,0.905,0.558,1.88,0.558,2.926V41.881z M81.603,16.167c0,1.045-0.21,2.09-0.627,2.997
		c-0.419,0.906-0.976,1.742-1.743,2.439c0.697,0.697,1.324,1.463,1.673,2.37c0.418,0.905,0.627,1.88,0.627,2.996v8.64
		c0,1.046-0.21,2.022-0.558,2.858c-0.418,0.906-0.905,1.672-1.602,2.37c-0.697,0.696-1.464,1.185-2.37,1.603
		c-0.906,0.418-1.811,0.557-2.857,0.557h-5.435c-0.558,0-1.046-0.209-1.464-0.557c-0.418-0.418-0.627-0.906-0.627-1.463L66.69,2.23
		c0-0.558,0.209-1.045,0.627-1.463c0.418-0.419,0.906-0.628,1.463-0.628h5.436c1.045,0,1.951,0.21,2.857,0.558
		c0.906,0.418,1.673,0.906,2.37,1.603c0.696,0.697,1.184,1.463,1.602,2.369c0.418,0.906,0.558,1.882,0.558,2.927V16.167z
		 M100.278,41.881c0,0.697-0.348,1.046-1.045,1.046h-2.09c-0.697,0-1.046-0.349-1.046-1.045V23.484h-6.62v18.398
		c0,0.696-0.348,1.045-1.045,1.045h-2.09c-0.28,0-0.489-0.069-0.698-0.278s-0.348-0.418-0.348-0.768V7.527
		c0-1.045,0.209-2.02,0.557-2.927c0.349-0.906,0.906-1.672,1.603-2.369c0.697-0.697,1.464-1.254,2.37-1.603
		c1.044-0.348,2.02-0.558,3.066-0.558c1.045,0,1.95,0.209,2.857,0.557c0.906,0.349,1.672,0.906,2.37,1.603
		c0.696,0.697,1.254,1.463,1.602,2.37c0.418,0.905,0.557,1.88,0.557,2.926V41.881z M118.258,16.167c0,1.742-0.488,3.206-1.533,4.53
		c-1.045,1.324-2.3,2.16-3.833,2.648v18.676c0,0.278-0.139,0.557-0.348,0.767c-0.209,0.209-0.488,0.278-0.697,0.278h-2.091
		c-0.697,0-1.045-0.349-1.045-1.045V23.345c-1.603-0.488-2.857-1.324-3.903-2.648c-0.975-1.324-1.533-2.788-1.533-4.53V1.115
		c0-0.279,0.07-0.488,0.279-0.697s0.418-0.348,0.767-0.348h2.09c0.279,0,0.558,0.14,0.767,0.348c0.209,0.21,0.279,0.488,0.279,0.697
		v15.052c0,0.906,0.348,1.673,0.975,2.3s1.464,0.976,2.37,0.976c0.905,0,1.672-0.349,2.299-0.976s0.976-1.394,0.976-2.3V1.115
		c0-0.279,0.069-0.488,0.279-0.697c0.209-0.209,0.418-0.348,0.766-0.348h2.091c0.348,0.07,0.557,0.14,0.766,0.348
		c0.209,0.21,0.279,0.488,0.279,0.697V16.167z M136.585,72.404c0.348,0.21,0.906,0.488,1.603,0.697
		c1.254,0.418,2.16,0.836,2.787,1.463c0.627,0.558,0.906,1.324,0.906,2.229c0,0.628-0.139,1.185-0.488,1.673
		c-0.348,0.488-0.836,0.836-1.394,1.045c-0.627,0.279-1.324,0.35-2.16,0.35c-0.766,0-1.533-0.141-2.23-0.42
		c-0.697-0.277-1.254-0.695-1.672-1.254c-0.418-0.557-0.627-1.254-0.627-2.09h2.508c0,0.627,0.209,1.115,0.558,1.394
		c0.348,0.278,0.906,0.418,1.533,0.418c0.557,0,0.906-0.14,1.185-0.349c0.278-0.209,0.418-0.487,0.418-0.836
		c0-0.279-0.07-0.488-0.14-0.627c-0.139-0.14-0.278-0.349-0.627-0.488c-0.279-0.139-0.766-0.348-1.324-0.558
		c-0.766-0.069-1.394-0.348-1.951-0.627c-0.558-0.278-0.976-0.696-1.324-1.114c-0.349-0.418-0.488-0.976-0.488-1.604
		c0-0.627,0.209-1.184,0.557-1.672c0.349-0.488,0.837-0.836,1.464-1.115c0.627-0.279,1.324-0.418,2.16-0.418s1.533,0.141,2.16,0.418
		c0.628,0.279,1.115,0.697,1.464,1.184c0.348,0.559,0.488,1.115,0.488,1.813h-2.509c0-0.486-0.139-0.836-0.418-1.115
		c-0.279-0.277-0.697-0.418-1.255-0.418c-0.557,0-0.975,0.141-1.254,0.35c-0.279,0.209-0.418,0.486-0.418,0.836
		C136.097,71.916,136.236,72.195,136.585,72.404z M142.718,42.439c-0.906,0.418-1.812,0.557-2.858,0.557
		c-1.045,0-2.021-0.209-2.857-0.557c-0.906-0.418-1.672-0.906-2.369-1.604c-0.697-0.697-1.254-1.463-1.603-2.37
		c-0.418-0.905-0.557-1.88-0.557-2.926v-2.16c0-0.279,0.069-0.488,0.278-0.697c0.209-0.21,0.418-0.349,0.767-0.349h2.091
		c0.278,0,0.557,0.14,0.766,0.349s0.279,0.418,0.279,0.697v2.16c0,0.976,0.348,1.742,0.975,2.37c0.628,0.627,1.394,0.975,2.3,0.975
		c0.906,0,1.673-0.348,2.3-0.976c0.627-0.627,0.975-1.463,0.975-2.369v-3.206v-0.627c0-0.07-0.069-0.209-0.139-0.418l-9.268-16.376
		c-0.279-0.558-0.558-0.976-0.697-1.324c-0.14-0.279-0.279-0.558-0.349-0.836c-0.069-0.28-0.139-0.558-0.139-0.837v-4.46
		c0-1.045,0.209-2.02,0.557-2.857c0.419-0.906,0.906-1.672,1.603-2.369c0.697-0.697,1.464-1.254,2.37-1.603
		C138.049,0.21,138.954,0.07,140,0.07c1.045,0,2.021,0.209,2.857,0.557c0.906,0.418,1.672,0.906,2.369,1.603
		c0.697,0.697,1.255,1.463,1.603,2.37c0.418,0.905,0.558,1.811,0.558,2.856v2.16c0,0.698-0.349,1.046-1.046,1.046h-2.09
		c-0.697,0-1.046-0.348-1.046-1.045v-2.16c0-0.906-0.348-1.673-0.975-2.3c-0.627-0.627-1.394-0.976-2.3-0.976
		c-0.906,0-1.672,0.349-2.3,0.976c-0.627,0.627-0.975,1.394-0.975,2.3v3.972c0,0.07,0.069,0.209,0.139,0.418l9.268,16.376
		c0.279,0.558,0.558,0.976,0.697,1.324c0.14,0.279,0.279,0.558,0.349,0.836c0.069,0.279,0.139,0.558,0.139,0.837v4.32
		c0,1.045-0.209,2.021-0.557,2.927c-0.418,0.906-0.906,1.672-1.603,2.37C144.39,41.533,143.623,42.021,142.718,42.439z
		 M154.494,70.732h-3.344v9.129h-2.509V70.73h-3.345v-2.02h9.129v2.02h0.069V70.732z M168.919,41.951l0.07-40.766v-0.07
		c0-0.279,0.069-0.488,0.278-0.697s0.418-0.348,0.767-0.348h2.091c0.278,0,0.557,0.14,0.766,0.348
		c0.209,0.21,0.279,0.488,0.279,0.697l-0.07,40.836c0,0.697-0.348,1.045-1.045,1.045h-2.091
		C169.267,42.996,168.919,42.648,168.919,41.951z M183.064,79.859h-2.508v-2.717l0.278-5.365l-2.856,8.152h-1.672l-2.857-8.152
		l0.278,5.365v2.719h-2.508V68.71h3.275l2.648,7.874l2.647-7.874h3.274V79.859z M191.359,16.167c0,2.16-0.768,3.903-2.301,5.366
		c1.533,1.394,2.23,3.206,2.23,5.436V42.02c0,0.697-0.35,1.045-1.045,1.045h-2.092c-0.696,0-1.045-0.348-1.045-1.045V26.969
		c0-0.976-0.278-1.742-0.976-2.37c-0.627-0.627-1.394-0.975-2.3-0.975h-3.275V42.02c0,0.279-0.139,0.558-0.348,0.768
		c-0.209,0.209-0.488,0.277-0.697,0.277h-2.091c-0.696,0-1.045-0.348-1.045-1.045l0.07-39.791c0-0.558,0.208-1.045,0.557-1.463
		c0.418-0.419,0.906-0.628,1.464-0.628h5.365c1.046,0,2.021,0.21,2.927,0.558c0.906,0.418,1.673,0.906,2.37,1.603
		c0.627,0.697,1.184,1.463,1.602,2.369c0.35,0.906,0.559,1.882,0.559,2.927L191.359,16.167L191.359,16.167z M205.714,79.859h-2.509
		v-2.717l0.279-5.365l-2.857,8.152h-1.673l-2.856-8.152l0.278,5.365v2.719h-2.509V68.71h3.275l2.648,7.874l2.648-7.874h3.274V79.859
		z M217.073,79.859l-0.697-2.159h-3.833l-0.697,2.159h-2.647l4.112-11.149h2.299l4.111,11.149H217.073z M218.607,40.768
		c-0.629-0.698-1.186-1.464-1.604-2.371c-0.418-0.906-0.559-1.812-0.559-2.857V7.456c0-1.045,0.209-2.02,0.559-2.857
		c0.418-0.906,0.906-1.672,1.604-2.369c0.695-0.697,1.463-1.254,2.369-1.603c0.905-0.418,1.881-0.557,2.926-0.557
		c1.046,0,2.021,0.209,2.857,0.557c0.906,0.418,1.672,0.906,2.369,1.603s1.255,1.463,1.604,2.37
		c0.418,0.905,0.558,1.811,0.558,2.856v2.16c0,0.698-0.349,1.046-1.046,1.046h-2.09c-0.697,0-1.047-0.348-1.047-1.045v-2.16
		c0-0.906-0.348-1.673-0.975-2.3c-0.627-0.627-1.395-0.976-2.3-0.976c-0.906,0-1.672,0.349-2.3,0.976
		c-0.627,0.627-0.975,1.394-0.975,2.3V35.54c0,0.906,0.348,1.673,0.975,2.3c0.628,0.627,1.394,0.975,2.3,0.975
		c0.905,0,1.673-0.348,2.3-0.975s0.975-1.394,0.975-2.3v-2.37c0-0.696,0.35-1.044,1.047-1.044h2.09c0.697,0,1.046,0.348,1.046,1.045
		v2.37c0,1.044-0.21,2.02-0.558,2.856c-0.349,0.906-0.906,1.673-1.604,2.371c-0.697,0.695-1.463,1.184-2.369,1.602
		c-0.906,0.419-1.812,0.558-2.857,0.558c-1.045,0-2.021-0.21-2.926-0.558C220.07,41.951,219.303,41.463,218.607,40.768z
		 M231.775,74.564c0,1.045-0.209,1.951-0.627,2.787s-1.045,1.463-1.812,1.883c-0.767,0.418-1.672,0.695-2.647,0.695h-3.484v-11.15
		h3.554c0.976-0.069,1.812,0.141,2.578,0.629c0.767,0.418,1.394,1.045,1.812,1.881s0.627,1.742,0.627,2.788V74.564z M243.414,70.801
		h-5.087v2.37h4.321v1.951h-4.321v2.787h5.087v2.021h-7.596v-11.15h7.596V70.801z M278.605,41.881c0,0.28-0.139,0.559-0.348,0.768
		s-0.418,0.278-0.697,0.278h-2.09c-0.697,0-1.046-0.349-1.046-1.045V7.526c0-0.975-0.348-1.742-0.976-2.37
		c-0.627-0.626-1.463-0.975-2.369-0.975s-1.672,0.349-2.301,0.976c-0.627,0.627-0.975,1.463-0.975,2.37v34.355
		c0,0.696-0.349,1.045-1.045,1.045h-2.091c-0.696,0-1.045-0.349-1.045-1.045V7.526c0-0.975-0.349-1.742-0.976-2.37
		c-0.627-0.626-1.395-0.975-2.301-0.975c-0.975,0-1.742,0.349-2.369,0.976c-0.627,0.627-0.976,1.463-0.976,2.37v34.355
		c0,0.696-0.349,1.045-1.045,1.045h-2.09c-0.279,0-0.488-0.069-0.697-0.278s-0.349-0.418-0.349-0.768V7.527
		c0-1.045,0.209-2.02,0.558-2.927c0.349-0.906,0.906-1.672,1.603-2.369c0.696-0.697,1.463-1.254,2.369-1.603
		c0.906-0.418,1.881-0.557,2.928-0.557c1.045,0,2.021,0.209,2.927,0.627c0.905,0.418,1.741,0.975,2.438,1.742
		c0.696-0.767,1.463-1.324,2.439-1.742c1.045-0.418,2.09-0.627,3.066-0.627V0.07c1.045,0,2.021,0.209,2.927,0.557
		c0.905,0.418,1.672,0.906,2.368,1.603c0.697,0.697,1.255,1.463,1.604,2.37c0.348,0.905,0.557,1.88,0.557,2.926V41.881z
		 M297.212,16.098c0,1.045-0.209,2.02-0.558,2.926c-0.348,0.906-0.905,1.673-1.603,2.37c-0.696,0.697-1.463,1.184-2.368,1.603
		c-0.906,0.418-1.813,0.557-2.857,0.557h-3.346v18.397c0,0.279-0.069,0.558-0.278,0.767s-0.418,0.278-0.697,0.278h-2.091
		c-0.696,0-1.045-0.348-1.045-1.045V1.115c0-0.279,0.07-0.488,0.279-0.697s0.418-0.348,0.766-0.348h6.412
		c1.045,0,2.02,0.209,2.857,0.557c0.905,0.418,1.672,0.906,2.368,1.603c0.697,0.697,1.255,1.463,1.603,2.37
		c0.349,0.905,0.558,1.88,0.558,2.926V16.098z M314.564,41.881c0,0.697-0.349,1.046-1.045,1.046h-2.09
		c-0.697,0-1.047-0.349-1.047-1.045V23.484h-6.619v18.398c0,0.696-0.349,1.045-1.046,1.045h-2.091c-0.277,0-0.486-0.069-0.697-0.278
		c-0.209-0.209-0.348-0.418-0.348-0.768V7.527c0-1.045,0.209-2.02,0.559-2.927c0.418-0.906,0.904-1.672,1.602-2.369
		c0.697-0.697,1.464-1.254,2.369-1.603c1.046-0.348,2.021-0.557,3.066-0.557V0.07c1.045,0,1.951,0.209,2.857,0.557
		c0.906,0.418,1.672,0.906,2.369,1.603s1.255,1.463,1.603,2.37c0.349,0.905,0.558,1.88,0.558,2.926V41.881z M333.171,41.881
		c0,0.697-0.348,1.046-1.045,1.046h-2.091c-0.697,0-1.045-0.349-1.045-1.045V7.526c0-0.975-0.35-1.742-0.977-2.37
		c-0.627-0.626-1.393-0.975-2.299-0.975c-0.977,0-1.743,0.349-2.37,0.976c-0.627,0.627-0.975,1.463-0.975,2.37v34.355
		c0,0.696-0.349,1.045-1.046,1.045h-2.09c-0.697,0-1.047-0.349-1.047-1.045V7.526c0-1.045,0.211-2.02,0.559-2.927
		c0.418-0.906,0.906-1.672,1.604-2.369c0.696-0.697,1.463-1.254,2.368-1.603c1.115-0.348,2.091-0.557,3.066-0.557
		c1.046,0,2.021,0.209,2.856,0.557c0.906,0.418,1.674,0.906,2.37,1.603c0.697,0.697,1.255,1.463,1.603,2.37
		c0.349,0.905,0.558,1.88,0.558,2.926V41.881z"></path>
	<path fill="none" d="M226.689,70.732h-1.045v7.107h1.045c0.836,0,1.463-0.279,1.951-0.837c0.418-0.558,0.696-1.394,0.696-2.508
		v-0.488c0-1.114-0.209-1.882-0.696-2.44C228.223,71.011,227.525,70.732,226.689,70.732z"></path>
	<path d="M276.445,2.23c-0.696-0.697-1.463-1.185-2.368-1.603c-0.906-0.348-1.882-0.557-2.927-0.557v0.001
		c-0.977,0-2.021,0.209-3.066,0.627c-0.977,0.418-1.743,0.975-2.439,1.742c-0.697-0.767-1.533-1.324-2.438-1.742
		c-0.906-0.418-1.882-0.627-2.927-0.627c-1.047,0-2.021,0.139-2.928,0.557c-0.906,0.349-1.673,0.906-2.369,1.603
		c-0.696,0.697-1.254,1.463-1.603,2.369c-0.349,0.907-0.558,1.882-0.558,2.927v34.354c0,0.35,0.14,0.559,0.349,0.768
		s0.418,0.278,0.697,0.278h2.09c0.696,0,1.045-0.349,1.045-1.045V7.527c0-0.907,0.349-1.743,0.976-2.37
		c0.627-0.627,1.395-0.976,2.369-0.976c0.906,0,1.674,0.349,2.301,0.975c0.627,0.628,0.976,1.395,0.976,2.37v34.356
		c0,0.696,0.349,1.045,1.045,1.045h2.091c0.696,0,1.045-0.349,1.045-1.045V7.527c0-0.907,0.348-1.743,0.975-2.37
		c0.629-0.627,1.395-0.976,2.301-0.976s1.742,0.349,2.369,0.975c0.628,0.628,0.976,1.395,0.976,2.37v34.356
		c0,0.696,0.349,1.045,1.046,1.045h2.09c0.279,0,0.488-0.069,0.697-0.278s0.348-0.487,0.348-0.768V7.526
		c0-1.046-0.209-2.021-0.557-2.926C277.7,3.693,277.143,2.927,276.445,2.23z"></path>
	<path d="M20.907,2.23c-0.697,0.697-1.255,1.463-1.673,2.369c-0.348,0.907-0.557,1.882-0.557,2.927V35.54
		c0,1.046,0.139,2.021,0.557,2.926c0.349,0.907,0.906,1.673,1.603,2.37c0.697,0.697,1.464,1.186,2.369,1.604
		c0.907,0.348,1.882,0.557,2.927,0.557c1.045,0,1.951-0.139,2.857-0.557c0.906-0.418,1.673-0.906,2.37-1.603
		c0.697-0.698,1.184-1.464,1.603-2.37c0.347-0.906,0.557-1.882,0.557-2.927V7.526c0-1.046-0.139-2.021-0.558-2.926
		c-0.348-0.907-0.905-1.673-1.602-2.37c-0.697-0.697-1.464-1.254-2.37-1.673C28.154,0.21,27.178,0,26.133,0h-0.002
		c-0.976,0-1.951,0.21-2.854,0.627C22.37,0.976,21.604,1.533,20.907,2.23z M26.132,4.181c0.906,0,1.673,0.349,2.3,0.975
		c0.627,0.628,0.975,1.395,0.975,2.37h0.001V35.54c0,0.906-0.349,1.672-0.976,2.3c-0.627,0.627-1.394,0.975-2.299,0.975
		c-0.907,0-1.743-0.348-2.37-0.975c-0.627-0.628-0.976-1.394-0.976-2.3V7.527c0-0.907,0.349-1.743,0.975-2.37
		C24.39,4.53,25.157,4.181,26.132,4.181z"></path>
	<path d="M312.404,2.23c-0.697-0.697-1.463-1.185-2.369-1.603c-0.906-0.348-1.813-0.557-2.857-0.557v0.001
		c-1.045,0-2.021,0.209-3.066,0.557c-0.905,0.349-1.672,0.906-2.369,1.603c-0.697,0.697-1.184,1.463-1.602,2.369
		c-0.35,0.907-0.559,1.882-0.559,2.927v34.354c0,0.35,0.139,0.559,0.348,0.768c0.211,0.209,0.42,0.278,0.697,0.278h2.091
		c0.697,0,1.046-0.349,1.046-1.045V23.484h6.619v18.398c0,0.696,0.35,1.045,1.047,1.045h2.09c0.696,0,1.045-0.349,1.045-1.046V7.526
		c0-1.046-0.209-2.021-0.558-2.926C313.659,3.693,313.102,2.927,312.404,2.23z M310.453,19.442h-6.62V7.596
		c0-0.906,0.349-1.742,0.976-2.37c0.627-0.627,1.394-0.975,2.369-0.975c0.906,0,1.672,0.348,2.299,0.975
		c0.629,0.628,0.977,1.394,0.977,2.37V19.442z"></path>
	<path d="M295.052,2.23c-0.696-0.697-1.463-1.185-2.368-1.603c-0.838-0.348-1.813-0.557-2.857-0.557h-6.412
		c-0.348,0-0.557,0.139-0.766,0.348s-0.279,0.418-0.279,0.697v40.836c0,0.697,0.349,1.045,1.045,1.045h2.091
		c0.279,0,0.488-0.069,0.697-0.278s0.278-0.487,0.278-0.767V23.554h3.346c1.045,0,1.951-0.139,2.857-0.557
		c0.905-0.419,1.672-0.906,2.368-1.603c0.697-0.697,1.255-1.464,1.603-2.37c0.349-0.906,0.558-1.881,0.558-2.926V7.526
		c0-1.046-0.209-2.021-0.558-2.926C296.307,3.693,295.749,2.927,295.052,2.23z M293.102,7.527v8.64c0,0.906-0.35,1.673-0.977,2.3
		s-1.395,0.975-2.299,0.975h-3.346V4.181h3.346c0.904,0,1.672,0.349,2.299,0.975C292.752,5.784,293.102,6.551,293.102,7.527
		L293.102,7.527z"></path>
	<path d="M79.443,2.3c-0.697-0.697-1.464-1.185-2.37-1.603c-0.906-0.348-1.813-0.558-2.857-0.558H68.78
		c-0.557,0-1.045,0.209-1.463,0.628C66.899,1.185,66.69,1.672,66.69,2.23l-0.07,38.747c0,0.557,0.209,1.045,0.627,1.463
		c0.418,0.348,0.906,0.557,1.464,0.557h5.435c1.046,0,1.951-0.139,2.857-0.557c0.906-0.418,1.673-0.906,2.37-1.603
		c0.697-0.698,1.184-1.464,1.602-2.37c0.348-0.836,0.558-1.812,0.558-2.858v-8.64c0-1.116-0.209-2.091-0.627-2.996
		c-0.349-0.907-0.976-1.673-1.673-2.37c0.767-0.697,1.324-1.533,1.743-2.439c0.417-0.907,0.627-1.952,0.627-2.997V7.596
		c0-1.045-0.14-2.021-0.558-2.927C80.627,3.763,80.139,2.997,79.443,2.3z M77.49,26.9v8.64c0,0.906-0.348,1.672-0.975,2.3
		c-0.628,0.627-1.394,0.975-2.3,0.975H70.87V23.624h3.346c0.906,0,1.672,0.348,2.3,0.975C77.143,25.227,77.491,25.993,77.49,26.9
		L77.49,26.9z M77.49,7.527v8.57c0,0.907-0.348,1.743-0.975,2.37c-0.628,0.697-1.394,0.975-2.3,0.975H70.87V4.181h3.346
		c0.906,0,1.672,0.349,2.3,0.975C77.143,5.784,77.491,6.551,77.49,7.527L77.49,7.527z"></path>
	<path d="M331.011,2.23c-0.696-0.697-1.464-1.185-2.37-1.603c-0.836-0.348-1.811-0.557-2.856-0.557
		c-0.976,0-1.951,0.209-3.066,0.557c-0.905,0.349-1.672,0.906-2.368,1.603c-0.697,0.697-1.186,1.463-1.604,2.369
		c-0.348,0.907-0.559,1.882-0.559,2.927v34.356c0,0.696,0.35,1.045,1.047,1.045h2.09c0.697,0,1.046-0.349,1.046-1.045V7.527
		c0-0.907,0.348-1.743,0.975-2.37c0.627-0.627,1.394-0.976,2.37-0.976c0.906,0,1.672,0.349,2.299,0.975
		c0.627,0.628,0.977,1.395,0.977,2.37v34.356c0,0.696,0.348,1.045,1.045,1.045h2.091c0.697,0,1.045-0.349,1.045-1.046V7.526
		c0-1.046-0.209-2.021-0.558-2.926C332.266,3.693,331.708,2.927,331.011,2.23z"></path>
	<path d="M60.837,2.23c-0.697-0.697-1.464-1.185-2.37-1.603C57.561,0.279,56.586,0.07,55.54,0.07c-1.045,0-2.02,0.21-2.926,0.557
		c-0.976,0.418-1.743,0.976-2.439,1.742c-0.697-0.766-1.533-1.324-2.579-1.672C46.69,0.279,45.715,0.07,44.669,0.07
		s-2.021,0.14-2.927,0.558c-0.906,0.349-1.673,0.906-2.37,1.603c-0.697,0.697-1.185,1.463-1.603,2.369
		c-0.348,0.907-0.557,1.882-0.557,2.927v34.354c0,0.35,0.139,0.559,0.348,0.768s0.418,0.278,0.698,0.278h2.09
		c0.697,0,1.045-0.349,1.045-1.045V7.527c0-0.907,0.348-1.743,0.975-2.37c0.628-0.627,1.394-0.976,2.37-0.976
		c0.906,0,1.672,0.349,2.3,0.975c0.627,0.628,0.975,1.395,0.975,2.37v34.356c0,0.696,0.349,1.045,1.046,1.045h2.09
		c0.697,0,1.046-0.349,1.046-1.045V7.527c0-0.907,0.348-1.743,0.975-2.37c0.627-0.627,1.394-0.976,2.299-0.976
		c0.976,0,1.813,0.349,2.37,0.975c0.627,0.628,0.976,1.395,0.976,2.37v34.356c0,0.696,0.348,1.045,1.045,1.045h2.092
		c0.278,0,0.487-0.069,0.696-0.278s0.349-0.487,0.349-0.768V7.526c0-1.046-0.139-2.021-0.558-2.926
		C62.091,3.693,61.533,2.927,60.837,2.23z"></path>
	<path d="M350.175,0.07h-2.091c-0.348,0-0.559,0.139-0.768,0.348s-0.277,0.418-0.277,0.697v15.052c0,0.906-0.35,1.673-0.977,2.3
		s-1.394,0.976-2.299,0.976c-0.906,0-1.742-0.349-2.369-0.976s-0.977-1.394-0.977-2.3V1.115c0-0.209-0.068-0.487-0.277-0.697
		c-0.209-0.278-0.488-0.348-0.768-0.348h-2.09c-0.35,0-0.559,0.139-0.768,0.348s-0.279,0.418-0.279,0.697v15.052
		c0,1.742,0.559,3.206,1.533,4.53c1.047,1.324,2.301,2.16,3.903,2.648v18.676c0,0.696,0.349,1.045,1.045,1.045h2.091
		c0.209,0,0.488-0.069,0.697-0.278c0.278-0.21,0.348-0.488,0.348-0.767V23.345c1.533-0.488,2.787-1.324,3.834-2.648
		c1.045-1.324,1.533-2.788,1.533-4.53V1.115c0-0.209-0.07-0.487-0.279-0.697C350.732,0.21,350.523,0.14,350.175,0.07z"></path>
	<path d="M117.213,0.07h-2.091c-0.348,0-0.557,0.139-0.766,0.348c-0.21,0.209-0.279,0.418-0.279,0.697v15.052
		c0,0.906-0.349,1.673-0.976,2.3s-1.394,0.976-2.299,0.976c-0.906,0-1.743-0.349-2.37-0.976s-0.975-1.394-0.975-2.3V1.115
		c0-0.209-0.07-0.487-0.279-0.697c-0.209-0.208-0.488-0.348-0.767-0.348h-2.09c-0.349,0-0.558,0.139-0.767,0.348
		s-0.279,0.418-0.279,0.697v15.052c0,1.742,0.558,3.206,1.533,4.53c1.046,1.324,2.3,2.16,3.903,2.648v18.676
		c0,0.696,0.348,1.045,1.045,1.045h2.091c0.209,0,0.488-0.069,0.697-0.278c0.209-0.21,0.348-0.488,0.348-0.767V23.345
		c1.533-0.488,2.788-1.324,3.833-2.648c1.045-1.324,1.533-2.788,1.533-4.53V1.115c0-0.209-0.07-0.487-0.279-0.697
		C117.77,0.21,117.561,0.14,117.213,0.07z"></path>
	<path d="M236.516,2.16c-0.697,0.697-1.254,1.464-1.603,2.37c-0.349,0.906-0.558,1.881-0.558,2.926V35.47
		c0,1.046,0.14,2.021,0.558,2.927c0.348,0.906,0.905,1.673,1.603,2.371c0.697,0.695,1.463,1.184,2.369,1.602
		c0.906,0.348,1.883,0.558,2.928,0.558s1.951-0.139,2.856-0.558c0.906-0.418,1.673-0.906,2.369-1.602
		c0.696-0.698,1.185-1.464,1.603-2.371c0.35-0.906,0.559-1.881,0.559-2.927V7.456c0-1.045-0.209-2.02-0.559-2.926
		c-0.348-0.906-0.906-1.673-1.603-2.37c-0.696-0.697-1.463-1.184-2.369-1.603C243.833,0.21,242.857,0,241.813,0
		s-2.021,0.209-2.928,0.557C237.979,0.906,237.213,1.463,236.516,2.16z M241.813,4.181c0.905,0,1.672,0.349,2.299,0.975
		c0.627,0.628,0.976,1.395,0.976,2.37V35.54c0,0.906-0.349,1.672-0.976,2.3c-0.627,0.627-1.394,0.975-2.299,0.975
		c-0.906,0-1.742-0.348-2.369-0.975c-0.629-0.628-0.977-1.394-0.977-2.3V7.527c0-0.907,0.348-1.743,0.977-2.37
		C240.07,4.53,240.836,4.181,241.813,4.181z"></path>
	<path d="M98.119,2.23c-0.698-0.697-1.464-1.254-2.37-1.603c-0.907-0.348-1.812-0.557-2.857-0.557c-1.046,0-2.022,0.21-3.066,0.558
		c-0.906,0.349-1.673,0.906-2.37,1.603c-0.697,0.697-1.254,1.463-1.603,2.369c-0.348,0.907-0.557,1.882-0.557,2.927v34.354
		c0,0.35,0.139,0.559,0.348,0.768s0.418,0.278,0.698,0.278h2.09c0.697,0,1.045-0.349,1.045-1.045V23.484h6.62v18.398
		c0,0.696,0.349,1.045,1.046,1.045h2.09c0.697,0,1.045-0.349,1.045-1.046V7.526c0-1.046-0.139-2.021-0.557-2.926
		C99.373,3.693,98.815,2.927,98.119,2.23z M96.097,19.442h-6.62V7.596c0-0.906,0.349-1.742,0.975-2.37
		c0.628-0.627,1.394-0.975,2.37-0.975c0.906,0,1.673,0.348,2.3,0.975c0.627,0.628,0.975,1.394,0.975,2.37V19.442z"></path>
	<path d="M190.73,4.668c-0.418-0.906-0.975-1.672-1.602-2.369c-0.697-0.697-1.464-1.185-2.37-1.603
		c-0.905-0.348-1.881-0.558-2.927-0.558h-5.365c-0.558,0-1.046,0.209-1.464,0.628c-0.349,0.418-0.557,0.905-0.557,1.463
		l-0.07,39.791c0,0.697,0.349,1.045,1.045,1.045h2.091c0.209,0,0.488-0.068,0.697-0.277c0.209-0.21,0.348-0.488,0.348-0.768V23.624
		h3.275c0.906,0,1.673,0.348,2.3,0.975c0.697,0.628,0.976,1.394,0.976,2.37V42.02c0,0.697,0.349,1.045,1.045,1.045h2.092
		c0.695,0,1.045-0.348,1.045-1.045V26.969c0-2.229-0.697-4.042-2.23-5.436c1.533-1.463,2.301-3.206,2.301-5.366v-0.001l-0.07-8.571
		C191.289,6.55,191.08,5.574,190.73,4.668z M187.247,7.527v8.64c0,0.906-0.349,1.673-0.976,2.3s-1.394,0.975-2.299,0.975h-3.275
		V4.181h3.275c0.905,0,1.672,0.349,2.299,0.975C186.898,5.784,187.247,6.551,187.247,7.527L187.247,7.527z"></path>
	<path d="M226.76,42.369c0.906-0.418,1.672-0.906,2.369-1.602c0.697-0.698,1.255-1.464,1.604-2.371
		c0.348-0.836,0.558-1.812,0.558-2.856v-2.37c0-0.697-0.349-1.045-1.046-1.045h-2.09c-0.697,0-1.047,0.348-1.047,1.044v2.37
		c0,0.906-0.348,1.673-0.975,2.3s-1.395,0.975-2.3,0.975c-0.906,0-1.672-0.348-2.3-0.975c-0.627-0.627-0.975-1.394-0.975-2.3V7.457
		c0-0.906,0.348-1.673,0.975-2.3c0.628-0.627,1.394-0.976,2.3-0.976c0.905,0,1.673,0.349,2.3,0.976
		c0.627,0.627,0.975,1.394,0.975,2.3v2.16c0,0.697,0.35,1.045,1.047,1.045h2.09c0.697,0,1.046-0.348,1.046-1.046v-2.16
		c0-1.045-0.14-1.951-0.558-2.856c-0.349-0.907-0.906-1.673-1.604-2.37s-1.463-1.185-2.369-1.603
		c-0.836-0.348-1.812-0.557-2.857-0.557c-1.045,0-2.021,0.139-2.926,0.557c-0.906,0.349-1.674,0.906-2.369,1.603
		c-0.697,0.697-1.186,1.463-1.604,2.369c-0.35,0.837-0.559,1.812-0.559,2.857V35.54c0,1.045,0.141,1.951,0.559,2.857
		c0.418,0.906,0.975,1.673,1.604,2.371c0.695,0.695,1.463,1.184,2.369,1.602c0.905,0.348,1.881,0.558,2.926,0.558
		C224.948,42.927,225.854,42.788,226.76,42.369z"></path>
	<path d="M192.544,1.046v2.09c0,0.697,0.349,1.045,1.045,1.045h2.927l-0.139,37.77c0,0.697,0.348,1.045,1.045,1.045h2.092
		c0.695,0,1.045-0.348,1.045-1.045v-37.7h2.926c0.697,0,1.045-0.349,1.045-1.046v-2.09c0-0.209-0.069-0.487-0.278-0.697
		C204.042,0.21,203.833,0.07,203.555,0h-9.966c-0.348,0-0.557,0.139-0.766,0.348S192.544,0.766,192.544,1.046z"></path>
	<path d="M2.021,42.927h5.435c1.046,0,1.952-0.139,2.857-0.558c0.907-0.418,1.673-0.906,2.37-1.602
		c0.697-0.698,1.185-1.464,1.603-2.371c0.348-0.836,0.557-1.812,0.557-2.857v-8.641c0-1.115-0.209-2.091-0.627-2.997
		c-0.348-0.905-0.976-1.672-1.672-2.368c0.766-0.698,1.324-1.534,1.742-2.44c0.417-0.906,0.627-1.951,0.627-2.996h-0.001V7.456
		c0-1.045-0.14-2.02-0.558-2.926c-0.348-0.906-0.905-1.673-1.602-2.37c-0.697-0.697-1.464-1.184-2.37-1.603
		C9.476,0.21,8.57,0,7.525,0H2.09C1.533,0,1.045,0.21,0.697,0.627C0.279,1.045,0.07,1.533,0.07,2.091L0,40.836
		c0,0.627,0.21,1.115,0.557,1.533C0.976,42.717,1.463,42.927,2.021,42.927z M4.181,4.112h3.345c0.906,0,1.673,0.348,2.3,0.975
		s0.975,1.394,0.975,2.369v0.001v8.57c0,0.907-0.348,1.743-0.975,2.37c-0.627,0.697-1.394,0.975-2.3,0.975H4.181V4.112z
		 M4.181,23.554h3.345c0.906,0,1.673,0.348,2.3,0.976c0.627,0.627,0.975,1.393,0.975,2.3v8.64c0,0.906-0.348,1.673-0.975,2.3
		s-1.394,0.976-2.3,0.976H4.181V23.554z"></path>
	<path d="M147.247,35.54v-4.32c0-0.279-0.07-0.558-0.139-0.837c-0.07-0.278-0.209-0.557-0.349-0.836
		c-0.139-0.348-0.418-0.766-0.697-1.324l-9.268-16.376c-0.07-0.209-0.139-0.348-0.139-0.418V7.457c0-0.906,0.348-1.673,0.975-2.3
		c0.628-0.627,1.394-0.976,2.3-0.976c0.906,0,1.673,0.349,2.3,0.976c0.627,0.627,0.975,1.394,0.975,2.3v2.16
		c0,0.697,0.349,1.045,1.046,1.045h2.09c0.697,0,1.046-0.348,1.046-1.046v-2.16c0-1.045-0.14-1.951-0.558-2.856
		c-0.348-0.907-0.906-1.673-1.603-2.37c-0.697-0.697-1.463-1.185-2.369-1.603C142.021,0.279,141.045,0.07,140,0.07
		c-1.046,0-1.951,0.14-2.857,0.557c-0.906,0.349-1.673,0.906-2.37,1.603c-0.697,0.697-1.184,1.463-1.603,2.369
		c-0.348,0.837-0.557,1.812-0.557,2.857v4.46c0,0.279,0.07,0.557,0.139,0.837c0.07,0.278,0.209,0.557,0.349,0.836
		c0.139,0.348,0.418,0.766,0.697,1.324l9.268,16.376c0.07,0.209,0.139,0.348,0.139,0.418v0.627v3.206
		c0,0.906-0.348,1.742-0.975,2.369c-0.627,0.628-1.394,0.976-2.3,0.976c-0.906,0-1.672-0.348-2.3-0.975
		c-0.627-0.628-0.975-1.394-0.975-2.37v-2.16c0-0.279-0.07-0.488-0.279-0.697s-0.488-0.349-0.766-0.349h-2.091
		c-0.349,0-0.558,0.139-0.767,0.349c-0.209,0.209-0.278,0.418-0.278,0.697v2.16c0,1.046,0.139,2.021,0.557,2.926
		c0.349,0.907,0.906,1.673,1.603,2.37c0.697,0.697,1.463,1.186,2.369,1.604c0.836,0.348,1.812,0.557,2.857,0.557
		c1.046,0,1.952-0.139,2.858-0.557c0.905-0.418,1.672-0.906,2.369-1.603c0.697-0.698,1.185-1.464,1.603-2.37
		C147.038,37.561,147.247,36.585,147.247,35.54z"></path>
	<path d="M173.1,41.951l0.07-40.836c0-0.209-0.07-0.487-0.279-0.697c-0.209-0.208-0.488-0.348-0.766-0.348h-2.091
		c-0.349,0-0.558,0.139-0.767,0.348s-0.278,0.418-0.278,0.697v0.07l-0.07,40.766c0,0.697,0.348,1.045,1.045,1.045h2.091
		C172.752,42.996,173.1,42.648,173.1,41.951z"></path>
	<path d="M150.313,1.045v0.07l-0.07,40.767c0,0.696,0.349,1.045,1.045,1.045h2.091c0.697,0,1.045-0.349,1.045-1.045V23.554h6.621
		v18.328c0,0.696,0.348,1.045,1.045,1.045h2.021c0.697,0,1.045-0.349,1.045-1.045l0.07-40.837c0-0.209-0.07-0.487-0.279-0.697
		l0,0.001c-0.139-0.208-0.418-0.278-0.767-0.348h-2.02c-0.349,0-0.558,0.139-0.767,0.348s-0.279,0.419-0.279,0.697v18.396h-6.62
		V1.045c0-0.209-0.07-0.487-0.279-0.697C154.006,0.07,153.727,0,153.449,0h-2.091c-0.348,0-0.557,0.139-0.766,0.348
		S150.313,0.767,150.313,1.045z"></path>
</g>
</svg>