<?xml version="1.0" encoding="UTF-8" standalone="no"?>
<!DOCTYPE svg PUBLIC "-//W3C//DTD SVG 1.1//EN" "http://www.w3.org/Graphics/SVG/1.1/DTD/svg11.dtd">
<svg width="100%" height="100%" viewBox="0 0 10981 2500" version="1.1" xmlns="http://www.w3.org/2000/svg" xmlns:xlink="http://www.w3.org/1999/xlink" xml:space="preserve" xmlns:serif="http://www.serif.com/" style="fill-rule:evenodd;clip-rule:evenodd;stroke-linejoin:round;stroke-miterlimit:2;">
    <g transform="matrix(4.16667,0,0,4.16667,0,0)">
        <g transform="matrix(7.39005,0,0,7.0244,20.9025,148.744)">
            <g>
                <path d="M276.445,2.23C275.749,1.533 274.982,1.045 274.077,0.627C273.171,0.279 272.195,0.07 271.15,0.07L271.15,0.071C270.173,0.071 269.129,0.28 268.084,0.698C267.107,1.116 266.341,1.673 265.645,2.44C264.948,1.673 264.112,1.116 263.207,0.698C262.301,0.28 261.325,0.071 260.28,0.071C259.233,0.071 258.259,0.21 257.352,0.628C256.446,0.977 255.679,1.534 254.983,2.231C254.287,2.928 253.729,3.694 253.38,4.6C253.031,5.507 252.822,6.482 252.822,7.527L252.822,41.881C252.822,42.231 252.962,42.44 253.171,42.649C253.38,42.858 253.589,42.927 253.868,42.927L255.958,42.927C256.654,42.927 257.003,42.578 257.003,41.882L257.003,7.527C257.003,6.62 257.352,5.784 257.979,5.157C258.606,4.53 259.374,4.181 260.348,4.181C261.254,4.181 262.022,4.53 262.649,5.156C263.276,5.784 263.625,6.551 263.625,7.526L263.625,41.882C263.625,42.578 263.974,42.927 264.67,42.927L266.761,42.927C267.457,42.927 267.806,42.578 267.806,41.882L267.806,7.527C267.806,6.62 268.154,5.784 268.781,5.157C269.41,4.53 270.176,4.181 271.082,4.181C271.988,4.181 272.824,4.53 273.451,5.156C274.079,5.784 274.427,6.551 274.427,7.526L274.427,41.882C274.427,42.578 274.776,42.927 275.473,42.927L277.563,42.927C277.842,42.927 278.051,42.858 278.26,42.649C278.469,42.44 278.608,42.162 278.608,41.881L278.608,7.526C278.608,6.48 278.399,5.505 278.051,4.6C277.7,3.693 277.143,2.927 276.445,2.23Z" style="fill-rule:nonzero;stroke:black;stroke-opacity:0;stroke-width:0.14px;"/>
                <path d="M312.404,2.23C311.707,1.533 310.941,1.045 310.035,0.627C309.129,0.279 308.222,0.07 307.178,0.07L307.178,0.071C306.133,0.071 305.157,0.28 304.112,0.628C303.207,0.977 302.44,1.534 301.743,2.231C301.046,2.928 300.559,3.694 300.141,4.6C299.791,5.507 299.582,6.482 299.582,7.527L299.582,41.881C299.582,42.231 299.721,42.44 299.93,42.649C300.141,42.858 300.35,42.927 300.627,42.927L302.718,42.927C303.415,42.927 303.764,42.578 303.764,41.882L303.764,23.484L310.383,23.484L310.383,41.882C310.383,42.578 310.733,42.927 311.43,42.927L313.52,42.927C314.216,42.927 314.565,42.578 314.565,41.881L314.565,7.526C314.565,6.48 314.356,5.505 314.007,4.6C313.659,3.693 313.102,2.927 312.404,2.23ZM310.454,19.442L303.833,19.442L303.833,7.596C303.833,6.69 304.182,5.854 304.809,5.226C305.436,4.599 306.203,4.251 307.178,4.251C308.084,4.251 308.85,4.599 309.477,5.226C310.106,5.854 310.454,6.62 310.454,7.596L310.454,19.442Z" style="fill-rule:nonzero;stroke:black;stroke-opacity:0;stroke-width:0.14px;"/>
                <path d="M295.052,2.23C294.356,1.533 293.589,1.045 292.684,0.627C291.846,0.279 290.871,0.07 289.827,0.07L283.415,0.07C283.067,0.07 282.858,0.209 282.649,0.418C282.44,0.627 282.37,0.836 282.37,1.115L282.37,41.951C282.37,42.648 282.719,42.996 283.415,42.996L285.506,42.996C285.785,42.996 285.994,42.927 286.203,42.718C286.412,42.509 286.481,42.231 286.481,41.951L286.481,23.554L289.827,23.554C290.872,23.554 291.778,23.415 292.684,22.997C293.589,22.578 294.356,22.091 295.052,21.394C295.749,20.697 296.307,19.93 296.655,19.024C297.004,18.118 297.213,17.143 297.213,16.098L297.213,7.526C297.213,6.48 297.004,5.505 296.655,4.6C296.307,3.693 295.749,2.927 295.052,2.23ZM293.102,7.527L293.102,16.167C293.102,17.073 292.752,17.84 292.125,18.467C291.498,19.094 290.73,19.442 289.826,19.442L286.48,19.442L286.48,4.181L289.826,4.181C290.73,4.181 291.498,4.53 292.125,5.156C292.752,5.784 293.102,6.551 293.102,7.527Z" style="fill-rule:nonzero;stroke:black;stroke-opacity:0;stroke-width:0.14px;"/>
                <path d="M331.011,2.23C330.315,1.533 329.547,1.045 328.641,0.627C327.805,0.279 326.83,0.07 325.785,0.07C324.809,0.07 323.834,0.279 322.719,0.627C321.814,0.976 321.047,1.533 320.351,2.23C319.654,2.927 319.165,3.693 318.747,4.599C318.399,5.506 318.188,6.481 318.188,7.526L318.188,41.882C318.188,42.578 318.538,42.927 319.235,42.927L321.325,42.927C322.022,42.927 322.371,42.578 322.371,41.882L322.371,7.527C322.371,6.62 322.719,5.784 323.346,5.157C323.973,4.53 324.74,4.181 325.716,4.181C326.622,4.181 327.388,4.53 328.015,5.156C328.642,5.784 328.992,6.551 328.992,7.526L328.992,41.882C328.992,42.578 329.34,42.927 330.037,42.927L332.128,42.927C332.825,42.927 333.173,42.578 333.173,41.881L333.173,7.526C333.173,6.48 332.964,5.505 332.615,4.6C332.266,3.693 331.708,2.927 331.011,2.23Z" style="fill-rule:nonzero;stroke:black;stroke-opacity:0;stroke-width:0.14px;"/>
                <path d="M350.175,0.07L348.084,0.07C347.736,0.07 347.525,0.209 347.316,0.418C347.107,0.627 347.039,0.836 347.039,1.115L347.039,16.167C347.039,17.073 346.689,17.84 346.062,18.467C345.435,19.094 344.668,19.443 343.763,19.443C342.857,19.443 342.021,19.094 341.394,18.467C340.767,17.84 340.417,17.073 340.417,16.167L340.417,1.115C340.417,0.906 340.349,0.628 340.14,0.418C339.931,0.14 339.652,0.07 339.372,0.07L337.282,0.07C336.932,0.07 336.723,0.209 336.514,0.418C336.305,0.627 336.235,0.836 336.235,1.115L336.235,16.167C336.235,17.909 336.794,19.373 337.768,20.697C338.815,22.021 340.069,22.857 341.671,23.345L341.671,42.021C341.671,42.717 342.02,43.066 342.716,43.066L344.807,43.066C345.016,43.066 345.295,42.997 345.504,42.788C345.782,42.578 345.852,42.3 345.852,42.021L345.852,23.345C347.385,22.857 348.639,22.021 349.686,20.697C350.731,19.373 351.219,17.909 351.219,16.167L351.219,1.115C351.219,0.906 351.149,0.628 350.94,0.418C350.732,0.21 350.523,0.14 350.175,0.07Z" style="fill-rule:nonzero;stroke:black;stroke-opacity:0;stroke-width:0.14px;"/>
                <path d="M236.516,2.16C235.819,2.857 235.262,3.624 234.913,4.53C234.564,5.436 234.355,6.411 234.355,7.456L234.355,35.47C234.355,36.516 234.495,37.491 234.913,38.397C235.261,39.303 235.818,40.07 236.516,40.768C237.213,41.463 237.979,41.952 238.885,42.37C239.791,42.718 240.768,42.928 241.813,42.928C242.858,42.928 243.764,42.789 244.669,42.37C245.575,41.952 246.342,41.464 247.038,40.768C247.734,40.07 248.223,39.304 248.641,38.397C248.991,37.491 249.2,36.516 249.2,35.47L249.2,7.456C249.2,6.411 248.991,5.436 248.641,4.53C248.293,3.624 247.735,2.857 247.038,2.16C246.342,1.463 245.575,0.976 244.669,0.557C243.833,0.21 242.857,0 241.813,0C240.769,0 239.792,0.209 238.885,0.557C237.979,0.906 237.213,1.463 236.516,2.16ZM241.813,4.181C242.718,4.181 243.485,4.53 244.112,5.156C244.739,5.784 245.088,6.551 245.088,7.526L245.088,35.54C245.088,36.446 244.739,37.212 244.112,37.84C243.485,38.467 242.718,38.815 241.813,38.815C240.907,38.815 240.071,38.467 239.444,37.84C238.815,37.212 238.467,36.446 238.467,35.54L238.467,7.527C238.467,6.62 238.815,5.784 239.444,5.157C240.07,4.53 240.836,4.181 241.813,4.181Z" style="fill-rule:nonzero;stroke:black;stroke-opacity:0;stroke-width:0.14px;"/>
                <path d="M226.76,42.369C227.666,41.951 228.432,41.463 229.129,40.767C229.826,40.069 230.384,39.303 230.733,38.396C231.081,37.56 231.291,36.584 231.291,35.54L231.291,33.17C231.291,32.473 230.942,32.125 230.245,32.125L228.155,32.125C227.458,32.125 227.108,32.473 227.108,33.169L227.108,35.539C227.108,36.445 226.76,37.212 226.133,37.839C225.506,38.466 224.738,38.814 223.833,38.814C222.927,38.814 222.161,38.466 221.533,37.839C220.906,37.212 220.558,36.445 220.558,35.539L220.558,7.457C220.558,6.551 220.906,5.784 221.533,5.157C222.161,4.53 222.927,4.181 223.833,4.181C224.738,4.181 225.506,4.53 226.133,5.157C226.76,5.784 227.108,6.551 227.108,7.457L227.108,9.617C227.108,10.314 227.458,10.662 228.155,10.662L230.245,10.662C230.942,10.662 231.291,10.314 231.291,9.616L231.291,7.456C231.291,6.411 231.151,5.505 230.733,4.6C230.384,3.693 229.827,2.927 229.129,2.23C228.431,1.533 227.666,1.045 226.76,0.627C225.924,0.279 224.948,0.07 223.903,0.07C222.858,0.07 221.882,0.209 220.977,0.627C220.071,0.976 219.303,1.533 218.608,2.23C217.911,2.927 217.422,3.693 217.004,4.599C216.654,5.436 216.445,6.411 216.445,7.456L216.445,35.54C216.445,36.585 216.586,37.491 217.004,38.397C217.422,39.303 217.979,40.07 218.608,40.768C219.303,41.463 220.071,41.952 220.977,42.37C221.882,42.718 222.858,42.928 223.903,42.928C224.948,42.927 225.854,42.788 226.76,42.369Z" style="fill-rule:nonzero;stroke:black;stroke-opacity:0;stroke-width:0.14px;"/>
            </g>
            <g>
                <path d="M20.907,2.23C20.21,2.927 19.652,3.693 19.234,4.599C18.886,5.506 18.677,6.481 18.677,7.526L18.677,35.54C18.677,36.586 18.816,37.561 19.234,38.466C19.583,39.373 20.14,40.139 20.837,40.836C21.534,41.533 22.301,42.022 23.206,42.44C24.113,42.788 25.088,42.997 26.133,42.997C27.178,42.997 28.084,42.858 28.99,42.44C29.896,42.022 30.663,41.534 31.36,40.837C32.057,40.139 32.544,39.373 32.963,38.467C33.31,37.561 33.52,36.585 33.52,35.54L33.52,7.526C33.52,6.48 33.381,5.505 32.962,4.6C32.614,3.693 32.057,2.927 31.36,2.23C30.663,1.533 29.896,0.976 28.99,0.557C28.154,0.21 27.178,0 26.133,0L26.131,0C25.155,0 24.18,0.21 23.277,0.627C22.37,0.976 21.604,1.533 20.907,2.23ZM26.132,4.181C27.038,4.181 27.805,4.53 28.432,5.156C29.059,5.784 29.407,6.551 29.407,7.526L29.408,7.526L29.408,35.54C29.408,36.446 29.059,37.212 28.432,37.84C27.805,38.467 27.038,38.815 26.133,38.815C25.226,38.815 24.39,38.467 23.763,37.84C23.136,37.212 22.787,36.446 22.787,35.54L22.787,7.527C22.787,6.62 23.136,5.784 23.762,5.157C24.39,4.53 25.157,4.181 26.132,4.181Z" style="fill-rule:nonzero;stroke:black;stroke-opacity:0;stroke-width:0.14px;"/>
                <path d="M79.443,2.3C78.746,1.603 77.979,1.115 77.073,0.697C76.167,0.349 75.26,0.139 74.216,0.139L68.78,0.139C68.223,0.139 67.735,0.348 67.317,0.767C66.899,1.185 66.69,1.672 66.69,2.23L66.62,40.977C66.62,41.534 66.829,42.022 67.247,42.44C67.665,42.788 68.153,42.997 68.711,42.997L74.146,42.997C75.192,42.997 76.097,42.858 77.003,42.44C77.909,42.022 78.676,41.534 79.373,40.837C80.07,40.139 80.557,39.373 80.975,38.467C81.323,37.631 81.533,36.655 81.533,35.609L81.533,26.969C81.533,25.853 81.324,24.878 80.906,23.973C80.557,23.066 79.93,22.3 79.233,21.603C80,20.906 80.557,20.07 80.976,19.164C81.393,18.257 81.603,17.212 81.603,16.167L81.603,7.596C81.603,6.551 81.463,5.575 81.045,4.669C80.627,3.763 80.139,2.997 79.443,2.3ZM77.49,26.9L77.49,35.54C77.49,36.446 77.142,37.212 76.515,37.84C75.887,38.467 75.121,38.815 74.215,38.815L70.87,38.815L70.87,23.624L74.216,23.624C75.122,23.624 75.888,23.972 76.516,24.599C77.143,25.227 77.491,25.993 77.49,26.9ZM77.49,7.527L77.49,16.097C77.49,17.004 77.142,17.84 76.515,18.467C75.887,19.164 75.121,19.442 74.215,19.442L70.87,19.442L70.87,4.181L74.216,4.181C75.122,4.181 75.888,4.53 76.516,5.156C77.143,5.784 77.491,6.551 77.49,7.527Z" style="fill-rule:nonzero;stroke:black;stroke-opacity:0;stroke-width:0.14px;"/>
                <path d="M60.837,2.23C60.14,1.533 59.373,1.045 58.467,0.627C57.561,0.279 56.586,0.07 55.54,0.07C54.495,0.07 53.52,0.28 52.614,0.627C51.638,1.045 50.871,1.603 50.175,2.369C49.478,1.603 48.642,1.045 47.596,0.697C46.69,0.279 45.715,0.07 44.669,0.07C43.623,0.07 42.648,0.21 41.742,0.628C40.836,0.977 40.069,1.534 39.372,2.231C38.675,2.928 38.187,3.694 37.769,4.6C37.421,5.507 37.212,6.482 37.212,7.527L37.212,41.881C37.212,42.231 37.351,42.44 37.56,42.649C37.769,42.858 37.978,42.927 38.258,42.927L40.348,42.927C41.045,42.927 41.393,42.578 41.393,41.882L41.393,7.527C41.393,6.62 41.741,5.784 42.368,5.157C42.996,4.53 43.762,4.181 44.738,4.181C45.644,4.181 46.41,4.53 47.038,5.156C47.665,5.784 48.013,6.551 48.013,7.526L48.013,41.882C48.013,42.578 48.362,42.927 49.059,42.927L51.149,42.927C51.846,42.927 52.195,42.578 52.195,41.882L52.195,7.527C52.195,6.62 52.543,5.784 53.17,5.157C53.797,4.53 54.564,4.181 55.469,4.181C56.445,4.181 57.282,4.53 57.839,5.156C58.466,5.784 58.815,6.551 58.815,7.526L58.815,41.882C58.815,42.578 59.163,42.927 59.86,42.927L61.952,42.927C62.23,42.927 62.439,42.858 62.648,42.649C62.857,42.44 62.997,42.162 62.997,41.881L62.997,7.526C62.997,6.48 62.858,5.505 62.439,4.6C62.091,3.693 61.533,2.927 60.837,2.23Z" style="fill-rule:nonzero;stroke:black;stroke-opacity:0;stroke-width:0.14px;"/>
                <path d="M117.213,0.07L115.122,0.07C114.774,0.07 114.565,0.209 114.356,0.418C114.146,0.627 114.077,0.836 114.077,1.115L114.077,16.167C114.077,17.073 113.728,17.84 113.101,18.467C112.474,19.094 111.707,19.443 110.802,19.443C109.896,19.443 109.059,19.094 108.432,18.467C107.805,17.84 107.457,17.073 107.457,16.167L107.457,1.115C107.457,0.906 107.387,0.628 107.178,0.418C106.969,0.21 106.69,0.07 106.411,0.07L104.321,0.07C103.972,0.07 103.763,0.209 103.554,0.418C103.345,0.627 103.275,0.836 103.275,1.115L103.275,16.167C103.275,17.909 103.833,19.373 104.808,20.697C105.854,22.021 107.108,22.857 108.711,23.345L108.711,42.021C108.711,42.717 109.059,43.066 109.756,43.066L111.847,43.066C112.056,43.066 112.335,42.997 112.544,42.788C112.753,42.578 112.892,42.3 112.892,42.021L112.892,23.345C114.425,22.857 115.68,22.021 116.725,20.697C117.77,19.373 118.258,17.909 118.258,16.167L118.258,1.115C118.258,0.906 118.188,0.628 117.979,0.418C117.77,0.21 117.561,0.14 117.213,0.07Z" style="fill-rule:nonzero;stroke:black;stroke-opacity:0;stroke-width:0.14px;"/>
                <path d="M98.119,2.23C97.421,1.533 96.655,0.976 95.749,0.627C94.842,0.279 93.937,0.07 92.892,0.07C91.846,0.07 90.87,0.28 89.826,0.628C88.92,0.977 88.153,1.534 87.456,2.231C86.759,2.928 86.202,3.694 85.853,4.6C85.505,5.507 85.296,6.482 85.296,7.527L85.296,41.881C85.296,42.231 85.435,42.44 85.644,42.649C85.853,42.858 86.062,42.927 86.342,42.927L88.432,42.927C89.129,42.927 89.477,42.578 89.477,41.882L89.477,23.484L96.097,23.484L96.097,41.882C96.097,42.578 96.446,42.927 97.143,42.927L99.233,42.927C99.93,42.927 100.278,42.578 100.278,41.881L100.278,7.526C100.278,6.48 100.139,5.505 99.721,4.6C99.373,3.693 98.815,2.927 98.119,2.23ZM96.097,19.442L89.477,19.442L89.477,7.596C89.477,6.69 89.826,5.854 90.452,5.226C91.08,4.599 91.846,4.251 92.822,4.251C93.728,4.251 94.495,4.599 95.122,5.226C95.749,5.854 96.097,6.62 96.097,7.596L96.097,19.442Z" style="fill-rule:nonzero;stroke:black;stroke-opacity:0;stroke-width:0.14px;"/>
                <g transform="matrix(1,0,0,1,0,-0.142361)">
                    <path d="M2.021,42.927L7.456,42.927C8.502,42.927 9.408,42.788 10.313,42.369C11.22,41.951 11.986,41.463 12.683,40.767C13.38,40.069 13.868,39.303 14.286,38.396C14.634,37.56 14.843,36.584 14.843,35.539L14.843,26.898C14.843,25.783 14.634,24.807 14.216,23.901C13.868,22.996 13.24,22.229 12.544,21.533C13.31,20.835 13.868,19.999 14.286,19.093C14.703,18.187 14.913,17.142 14.913,16.097L14.912,16.097L14.912,7.456C14.912,6.411 14.772,5.436 14.354,4.53C14.006,3.624 13.449,2.857 12.752,2.16C12.055,1.463 11.288,0.976 10.382,0.557C9.476,0.21 8.57,0 7.525,0L2.09,0C1.533,0 1.045,0.21 0.697,0.627C0.279,1.045 0.07,1.533 0.07,2.091L0,40.836C0,41.463 0.21,41.951 0.557,42.369C0.976,42.717 1.463,42.927 2.021,42.927ZM4.181,4.112L7.526,4.112C8.432,4.112 9.199,4.46 9.826,5.087C10.453,5.714 10.801,6.481 10.801,7.456L10.801,16.027C10.801,16.934 10.453,17.77 9.826,18.397C9.199,19.094 8.432,19.372 7.526,19.372L4.181,19.372L4.181,4.112ZM4.181,23.554L7.526,23.554C8.432,23.554 9.199,23.902 9.826,24.53C10.453,25.157 10.801,25.923 10.801,26.83L10.801,35.47C10.801,36.376 10.453,37.143 9.826,37.77C9.199,38.397 8.432,38.746 7.526,38.746L4.181,38.746L4.181,23.554Z" style="fill-rule:nonzero;"/>
                </g>
            </g>
            <g>
                <path d="M190.73,4.668C190.312,3.762 189.755,2.996 189.128,2.299C188.431,1.602 187.664,1.114 186.758,0.696C185.853,0.348 184.877,0.138 183.831,0.138L178.466,0.138C177.908,0.138 177.42,0.347 177.002,0.766C176.653,1.184 176.445,1.671 176.445,2.229L176.375,42.02C176.375,42.717 176.724,43.065 177.42,43.065L179.511,43.065C179.72,43.065 179.999,42.997 180.208,42.788C180.417,42.578 180.556,42.3 180.556,42.02L180.556,23.624L183.831,23.624C184.737,23.624 185.504,23.972 186.131,24.599C186.828,25.227 187.107,25.993 187.107,26.969L187.107,42.02C187.107,42.717 187.456,43.065 188.152,43.065L190.244,43.065C190.939,43.065 191.289,42.717 191.289,42.02L191.289,26.969C191.289,24.74 190.592,22.927 189.059,21.533C190.592,20.07 191.36,18.327 191.36,16.167L191.36,16.166L191.29,7.595C191.289,6.55 191.08,5.574 190.73,4.668ZM187.247,7.527L187.247,16.167C187.247,17.073 186.898,17.84 186.271,18.467C185.644,19.094 184.877,19.442 183.972,19.442L180.697,19.442L180.697,4.181L183.972,4.181C184.877,4.181 185.644,4.53 186.271,5.156C186.898,5.784 187.247,6.551 187.247,7.527Z" style="fill-rule:nonzero;stroke:black;stroke-opacity:0;stroke-width:0.14px;"/>
                <path d="M192.544,1.046L192.544,3.136C192.544,3.833 192.893,4.181 193.589,4.181L196.516,4.181L196.377,41.951C196.377,42.648 196.725,42.996 197.422,42.996L199.514,42.996C200.209,42.996 200.559,42.648 200.559,41.951L200.559,4.251L203.485,4.251C204.182,4.251 204.53,3.902 204.53,3.205L204.53,1.115C204.53,0.906 204.461,0.628 204.252,0.418C204.042,0.21 203.833,0.07 203.555,0L193.589,0C193.241,0 193.032,0.139 192.823,0.348C192.614,0.557 192.544,0.766 192.544,1.046Z" style="fill-rule:nonzero;stroke:black;stroke-opacity:0;stroke-width:0.14px;"/>
                <path d="M147.247,35.54L147.247,31.22C147.247,30.941 147.177,30.662 147.108,30.383C147.038,30.105 146.899,29.826 146.759,29.547C146.62,29.199 146.341,28.781 146.062,28.223L136.794,11.847C136.724,11.638 136.655,11.499 136.655,11.429L136.655,7.457C136.655,6.551 137.003,5.784 137.63,5.157C138.258,4.53 139.024,4.181 139.93,4.181C140.836,4.181 141.603,4.53 142.23,5.157C142.857,5.784 143.205,6.551 143.205,7.457L143.205,9.617C143.205,10.314 143.554,10.662 144.251,10.662L146.341,10.662C147.038,10.662 147.387,10.314 147.387,9.616L147.387,7.456C147.387,6.411 147.247,5.505 146.829,4.6C146.481,3.693 145.923,2.927 145.226,2.23C144.529,1.533 143.763,1.045 142.857,0.627C142.021,0.279 141.045,0.07 140,0.07C138.954,0.07 138.049,0.21 137.143,0.627C136.237,0.976 135.47,1.533 134.773,2.23C134.076,2.927 133.589,3.693 133.17,4.599C132.822,5.436 132.613,6.411 132.613,7.456L132.613,11.916C132.613,12.195 132.683,12.473 132.752,12.753C132.822,13.031 132.961,13.31 133.101,13.589C133.24,13.937 133.519,14.355 133.798,14.913L143.066,31.289C143.136,31.498 143.205,31.637 143.205,31.707L143.205,35.54C143.205,36.446 142.857,37.282 142.23,37.909C141.603,38.537 140.836,38.885 139.93,38.885C139.024,38.885 138.258,38.537 137.63,37.91C137.003,37.282 136.655,36.516 136.655,35.54L136.655,33.38C136.655,33.101 136.585,32.892 136.376,32.683C136.167,32.474 135.888,32.334 135.61,32.334L133.519,32.334C133.17,32.334 132.961,32.473 132.752,32.683C132.543,32.892 132.474,33.101 132.474,33.38L132.474,35.54C132.474,36.586 132.613,37.561 133.031,38.466C133.38,39.373 133.937,40.139 134.634,40.836C135.331,41.533 136.097,42.022 137.003,42.44C137.839,42.788 138.815,42.997 139.86,42.997C140.906,42.997 141.812,42.858 142.718,42.44C143.623,42.022 144.39,41.534 145.087,40.837C145.784,40.139 146.272,39.373 146.69,38.467C147.038,37.561 147.247,36.585 147.247,35.54Z" style="fill-rule:nonzero;stroke:black;stroke-opacity:0;stroke-width:0.14px;"/>
                <path d="M173.1,41.951L173.17,1.115C173.17,0.906 173.1,0.628 172.891,0.418C172.682,0.21 172.403,0.07 172.125,0.07L170.034,0.07C169.685,0.07 169.476,0.209 169.267,0.418C169.058,0.627 168.989,0.836 168.989,1.115L168.989,1.185L168.919,41.951C168.919,42.648 169.267,42.996 169.964,42.996L172.055,42.996C172.752,42.996 173.1,42.648 173.1,41.951Z" style="fill-rule:nonzero;stroke:black;stroke-opacity:0;stroke-width:0.14px;"/>
                <g transform="matrix(1,0,0,1,0,0.427083)">
                    <path d="M150.313,1.045L150.313,1.115L150.243,41.882C150.243,42.578 150.592,42.927 151.288,42.927L153.379,42.927C154.076,42.927 154.424,42.578 154.424,41.882L154.424,23.554L161.045,23.554L161.045,41.882C161.045,42.578 161.393,42.927 162.09,42.927L164.111,42.927C164.808,42.927 165.156,42.578 165.156,41.882L165.226,1.045C165.226,0.836 165.156,0.558 164.947,0.348L164.947,0.349C164.808,0.141 164.529,0.071 164.18,0.001L162.16,0.001C161.811,0.001 161.602,0.14 161.393,0.349C161.184,0.558 161.114,0.768 161.114,1.046L161.114,19.442L154.494,19.442L154.494,1.045C154.494,0.836 154.424,0.558 154.215,0.348C154.006,0.07 153.727,0 153.449,0L151.358,0C151.01,0 150.801,0.139 150.592,0.348C150.383,0.557 150.313,0.767 150.313,1.045Z" style="fill-rule:nonzero;stroke:black;stroke-opacity:0;stroke-width:0.14px;"/>
                </g>
            </g>
        </g>
    </g>
</svg>
