<svg id="img" width="120" height="27" viewBox="0 0 120 27" fill="none" xmlns="http://www.w3.org/2000/svg" xmlns:xlink="http://www.w3.org/1999/xlink">
<g clip-path="url(#clip0_180_3111)">
<path d="M 18.1 15.6 C 17.1 17.5 15.1 18.8 12.8 18.8 C 9.5 18.8 6.8 16.1 6.8 12.8 C 6.8 9.5 9.5 6.8 12.8 6.8 C 15.1 6.8 17.1 8.1 18.1 10 L 21.1 8.4 C 19.5 5.4 16.4 3.4 12.8 3.4 C 7.6 3.4 3.4 7.6 3.4 12.8 C 3.4 18 7.6 22.2 12.8 22.2 C 16.4 22.2 19.5 20.2 21.1 17.2 L 18.1 15.6 Z" fill="white"/>
<path d="M 0 12.8 C 0 5.7 5.7 0 12.8 0 V 0 V 25.6 V 25.6 C 5.7 25.6 0 19.9 0 12.8 V 12.8 Z" fill="url(#pattern0)"/>
<path d="M 0 12.8 C 0 5.7 5.7 0 12.8 0 V 0 V 25.6 V 25.6 C 5.7 25.6 0 19.9 0 12.8 V 12.8 Z" fill="#6077eb"/>
<path d="M 18.1 15.6 C 17.1 17.5 15.1 18.8 12.8 18.8 C 9.5 18.8 6.8 16.1 6.8 12.8 C 6.8 9.5 9.5 6.8 12.8 6.8 C 15.1 6.8 17.1 8.1 18.1 10 L 21.1 8.4 C 19.5 5.4 16.4 3.4 12.8 3.4 C 7.6 3.4 3.4 7.6 3.4 12.8 C 3.4 18 7.6 22.2 12.8 22.2 C 16.4 22.2 19.5 20.2 21.1 17.2 L 18.1 15.6 Z" fill="white"/>
<path fill-rule="evenodd" clip-rule="evenodd" d="M 12.8 18.8 V 22.2 C 12.8 22.2 12.8 22.2 12.8 22.2 C 7.6 22.2 3.4 18 3.4 12.8 C 3.4 7.6 7.6 3.4 12.8 3.4 C 12.8 3.4 12.8 3.4 12.8 3.4 V 6.8 C 12.8 6.8 12.8 6.8 12.8 6.8 C 9.5 6.8 6.8 9.5 6.8 12.8 C 6.8 16.1 9.5 18.8 12.8 18.8 C 12.8 18.8 12.8 18.8 12.8 18.8 Z" fill="black"/>
<path d="M 23.4 3 H 26.2 V 21.8 H 23.4 V 3 Z" fill="white"/>
<path d="M 35.5 19.6 C 37.1 19.6 38.3 18.9 38.9 18 L 41.2 19.4 C 40 21.1 38 22.2 35.5 22.2 C 31.3 22.2 28.5 19.3 28.5 15.4 C 28.5 11.6 31.3 8.6 35.3 8.6 C 39.2 8.6 41.8 11.7 41.8 15.4 C 41.8 15.8 41.7 16.2 41.7 16.6 H 31.4 C 31.8 18.6 33.5 19.6 35.5 19.6 Z M 39 14.3 C 38.6 12.1 37 11.1 35.3 11.1 C 33.2 11.1 31.8 12.4 31.4 14.3 H 39 Z" fill="white"/>
<path d="M 57.2 8.9 V 21.8 H 54.4 V 20 C 53.4 21.3 51.9 22.2 49.9 22.2 C 46.4 22.2 43.4 19.2 43.4 15.4 C 43.4 11.5 46.4 8.6 49.9 8.6 C 51.9 8.6 53.4 9.4 54.4 10.8 V 8.9 H 57.2 Z M 54.4 15.4 C 54.4 13 52.6 11.2 50.3 11.2 C 48 11.2 46.2 13 46.2 15.4 C 46.2 17.8 48 19.5 50.3 19.5 C 52.6 19.5 54.4 17.8 54.4 15.4 Z" fill="white"/>
<path d="M 67 8.7 V 11.7 C 65.1 11.6 63 12.4 63 15.3 V 21.8 H 60.2 V 8.9 H 63 V 11.1 C 63.8 9.3 65.3 8.7 67 8.7 Z" fill="white"/>
<path d="M 83 15.4 C 83 19.2 80.1 22.2 76.5 22.2 C 74.3 22.2 72.6 21.2 71.6 19.6 V 27 H 69.3 V 8.9 H 71.6 V 11.1 C 72.6 9.6 74.3 8.6 76.5 8.6 C 80.1 8.6 83 11.6 83 15.4 Z M 80.8 15.4 C 80.8 12.7 78.8 10.8 76.2 10.8 C 73.6 10.8 71.6 12.7 71.6 15.4 C 71.6 18 73.6 20 76.2 20 C 78.8 20 80.8 18 80.8 15.4 Z" fill="white"/>
<path d="M 85 15.4 C 85 11.6 88 8.6 91.8 8.6 C 95.5 8.6 98.6 11.6 98.6 15.4 C 98.6 19.2 95.5 22.2 91.8 22.2 C 88 22.2 85 19.2 85 15.4 Z M 96.3 15.4 C 96.3 12.8 94.3 10.8 91.8 10.8 C 89.2 10.8 87.2 12.8 87.2 15.4 C 87.2 18 89.2 20 91.8 20 C 94.3 20 96.3 18 96.3 15.4 V 15.4 Z" fill="white"/>
<path d="M 100.5 15.4 C 100.5 11.6 103.5 8.6 107.3 8.6 C 111.1 8.6 114.1 11.6 114.1 15.4 C 114.1 19.2 111.1 22.2 107.3 22.2 C 103.5 22.2 100.5 19.2 100.5 15.4 Z M 111.9 15.4 C 111.9 12.8 109.9 10.8 107.3 10.8 C 104.7 10.8 102.8 12.8 102.8 15.4 C 102.8 18 104.7 20 107.3 20 C 109.9 20 111.9 18 111.9 15.4 Z" fill="white"/>
<path d="M 116.8 3 H 119 V 21.8 H 116.8 V 3 Z" fill="white"/>
</g>
<defs>
<pattern id="pattern0" patternContentUnits="objectBoundingBox" width="1" height="1">
<use xlink:href="#image0_180_3111" transform="scale(0,0) matrix(null,null,null,null,null,null)"/>
</pattern>
<clipPath id="clip0_180_3111">
<rect width="119" height="27" fill="white"/>
</clipPath>
</defs>
</svg>
