<svg width="226" height="30" viewBox="0 0 226 30" fill="none" xmlns="http://www.w3.org/2000/svg">
<path d="M15.25 29.9997C11.2369 29.9997 7.22361 28.381 4.4143 25.548C1.60516 22.7151 0 18.6681 0 15.0256C0 6.93163 6.42111 0.0515639 14.8486 0.0515639C15.25 0.0515639 15.25 0.0515639 15.6513 0.0515639C20.0658 -0.353136 24.079 1.67045 27.2894 4.50335L23.2764 9.35979C21.2697 7.33629 18.4605 6.12219 15.6513 6.12219C10.8356 6.12219 7.22361 10.1692 7.22361 15.0256C7.22361 15.0256 7.22361 15.0256 7.22361 15.4304C6.82228 20.2868 10.8356 24.3339 15.25 24.7385H15.6513C18.4606 24.7385 21.2697 23.5245 23.2764 21.501L27.2894 25.548C24.0789 28.381 19.6644 29.9997 15.25 29.9997Z" fill="white"/>
<path d="M48.5602 18.268V30.0005H42.1391V18.268L30.9023 0.466797H38.5274L45.3497 12.1994L52.5733 0.466797H59.7971L48.5602 18.268Z" fill="white"/>
<path d="M77.1632 29.5873H63.1172V0.466797H76.7618C82.7816 0.466797 86.3934 3.29793 86.3934 8.15143C86.3934 10.9826 84.7883 13.4093 82.3803 14.6226C85.5908 15.4315 87.9986 18.2627 87.9986 21.9028C88.4 27.1606 83.9857 29.5873 77.1632 29.5873ZM80.3737 8.96019C80.3737 6.93796 78.7684 6.12915 75.9591 6.12915H69.5381V12.1959H75.5579C78.3671 12.1959 80.3737 11.387 80.3737 8.96019ZM81.979 20.6893C81.979 18.6671 80.3738 17.4537 77.1632 17.4537H69.5382V23.925H77.1632C79.9724 23.925 81.979 23.1161 81.979 20.6893Z" fill="white"/>
<path d="M112.143 29.5863L105.722 20.284H100.505V29.5863H94.084V0.46582H107.327C114.15 0.46582 118.564 4.10581 118.564 10.1726C118.564 14.2171 116.156 17.8572 112.143 19.0706L119.367 29.5863H112.143ZM112.544 10.5771C112.544 7.74592 110.538 6.53253 107.327 6.53253H100.906V15.026H107.327C110.538 14.6215 112.544 13.0038 112.544 10.5771Z" fill="white"/>
<path d="M126.088 29.5873V0.466797H132.509V29.5873H126.088Z" fill="white"/>
<path d="M138.838 29.5873V0.466797H145.259V23.925H160.108V29.5873H138.838Z" fill="white"/>
<path d="M166.684 29.5873V0.466797H173.105V23.925H187.954V29.5873H166.684Z" fill="white"/>
<path d="M209.946 0.466797L193.492 29.5874H225.999L209.946 0.466797ZM203.525 24.3295L209.946 12.6005L216.367 24.3295H203.525Z" fill="white"/>
</svg>
