<?xml version="1.0" encoding="utf-8"?>
<!-- Generator: Adobe Illustrator 21.1.0, SVG Export Plug-In . SVG Version: 6.00 Build 0)  -->
<svg version="1.1" id="Layer_1" xmlns="http://www.w3.org/2000/svg" xmlns:xlink="http://www.w3.org/1999/xlink" x="0px" y="0px"
	 viewBox="0 0 300 300" style="enable-background:new 0 0 300 300;" xml:space="preserve">
<style type="text/css">
	.st0{fill:#D0AD67;}
	.st1{fill:#9D1D22;}
	.st2{fill:#F58220;}
	.st3{fill:#FAF5B2;}
	.st4{fill:#FFF200;}
	.st5{fill:url(#SVGID_1_);}
	.st6{fill:url(#SVGID_2_);}
	.st7{fill:url(#SVGID_3_);}
	.st8{fill:url(#SVGID_4_);}
	.st9{fill:url(#SVGID_5_);}
	.st10{fill:#FFFFFF;}
	.st11{fill:none;}
</style>
<g>
	<g>
		<circle class="st0" cx="150" cy="150" r="150"/>
		<circle class="st1" cx="150" cy="150" r="139.7"/>
		<path class="st2" d="M150,275.3c-69.1,0-125.3-56.2-125.3-125.3S80.9,24.7,150,24.7S275.3,80.9,275.3,150S219.1,275.3,150,275.3z
			 M150,29.2C83.4,29.2,29.2,83.4,29.2,150S83.4,270.8,150,270.8S270.8,216.6,270.8,150S216.6,29.2,150,29.2z"/>
		<path class="st3" d="M91,88.8c0,0,19.8,4.1,30-3.4c0,0,12.2,7,30.6-1.1c0,0,14.4,6.5,30.8-0.6c0,0,13,8.1,28.1,1.4
			c0,0-2.5,11.8-23.3,16.2c-1.5,0.3-19.8,5.7-25.1,8.8h-23.3c0,0-16.5-6.5-33.1-10.3C105.8,99.8,93.8,95.1,91,88.8z"/>
		<rect x="140" y="113.1" class="st3" width="22" height="2.5"/>
		<rect x="140" y="118.8" class="st3" width="22" height="2.5"/>
		<path class="st3" d="M140,124.4h22c0,0,22.6,27.8,59.9,3c0,0-7.1,19.8-23.5,29.3L150,181l-51.2-19.5c0,0-20.8-14.8-22-28
			C76.8,133.5,108.5,154.5,140,124.4z"/>
		<path class="st2" d="M82,175.5c0,0,14.8-23.2,65.4-29.8c2.5-0.3,5-0.4,7.5-0.2c11.8,1,47.2,5.9,64.6,26.7c0,0-5,47.8-68.5,51.3
			C95.8,226.5,82,175.5,82,175.5z"/>
		<polygon class="st2" points="138,270 149.3,223.6 154.3,223.6 166.5,270 162.2,272.4 152.3,232.3 141.8,272.4 		"/>
		<path class="st1" d="M113,209c0,0,42.2-21.5,76.5,0c0,0,20-13.3,24.5-36.5c0,0-63.7-50.3-126.7,4.5C87.3,177,91.6,195.3,113,209z"
			/>
		<path class="st1" d="M119.3,212c0,0,31.5,15.3,65.7-1.5C185,210.5,155,194.5,119.3,212z"/>
		<path class="st4" d="M91,55.7c0,0-14,24.6-3.5,31.6c2.1,1.4,4.9,1.3,6.9-0.2C98.4,84.2,102.8,76.2,91,55.7z"/>
		
			<linearGradient id="SVGID_1_" gradientUnits="userSpaceOnUse" x1="91.1054" y1="215.5233" x2="91.1054" y2="240.5" gradientTransform="matrix(1 0 0 -1 0 302)">
			<stop  offset="0" style="stop-color:#FFF200"/>
			<stop  offset="0.6" style="stop-color:#F58220"/>
		</linearGradient>
		<path class="st5" d="M91,61.5c0,0-10.7,18.8-2.7,24.2c1.6,1.1,3.7,1,5.3-0.1C96.7,83.3,100.1,77.2,91,61.5z"/>
		<path class="st4" d="M211.2,52.2c0,0-14,24.6-3.5,31.6c2.1,1.4,4.9,1.3,6.9-0.2C218.6,80.7,223.1,72.8,211.2,52.2z"/>
		
			<linearGradient id="SVGID_2_" gradientUnits="userSpaceOnUse" x1="211.3831" y1="220.9981" x2="211.3831" y2="243.9" gradientTransform="matrix(1 0 0 -1 0 302)">
			<stop  offset="0" style="stop-color:#FFF200"/>
			<stop  offset="0.6" style="stop-color:#F58220"/>
		</linearGradient>
		<path class="st6" d="M211.3,58.1c0,0-9.8,17.2-2.4,22.2c1.5,1,3.4,0.9,4.8-0.1C216.4,78.1,219.6,72.5,211.3,58.1z"/>
		<path class="st4" d="M151.5,46.2c0,0-17.1,28.2-4.2,36.3c2.6,1.6,5.9,1.5,8.4-0.2C160.5,78.9,166,69.7,151.5,46.2z"/>
		
			<linearGradient id="SVGID_3_" gradientUnits="userSpaceOnUse" x1="151.6853" y1="222.6591" x2="151.6853" y2="249.3" gradientTransform="matrix(1 0 0 -1 0 302)">
			<stop  offset="0" style="stop-color:#FFF200"/>
			<stop  offset="0.6" style="stop-color:#F58220"/>
		</linearGradient>
		<path class="st7" d="M151.6,52.7c0,0-12.2,20-3,25.8c1.8,1.2,4.2,1.1,6-0.2C158,75.9,161.8,69.5,151.6,52.7z"/>
		<path class="st4" d="M121.2,47c0,0-14,29.1-3.5,37.5c2.1,1.7,4.9,1.6,6.9-0.2C128.6,80.8,133.1,71.4,121.2,47z"/>
		
			<linearGradient id="SVGID_4_" gradientUnits="userSpaceOnUse" x1="121.3696" y1="221.0146" x2="121.3696" y2="246.8546" gradientTransform="matrix(1 0 0 -1 0 302)">
			<stop  offset="0" style="stop-color:#FFF200"/>
			<stop  offset="0.6" style="stop-color:#F58220"/>
		</linearGradient>
		<path class="st8" d="M121.3,55.1c0,0-9.4,19.4-2.3,25c1.4,1.1,3.3,1.1,4.6-0.2C126.2,77.7,129.2,71.4,121.3,55.1z"/>
		<path class="st4" d="M182.2,50.7c0,0-14,25.3-3.5,32.5c2.1,1.5,4.9,1.4,6.9-0.2C189.6,80,194,71.8,182.2,50.7z"/>
		
			<linearGradient id="SVGID_5_" gradientUnits="userSpaceOnUse" x1="182.3594" y1="223.6847" x2="182.3594" y2="245.3966" gradientTransform="matrix(1 0 0 -1 0 302)">
			<stop  offset="0" style="stop-color:#FFF200"/>
			<stop  offset="0.6" style="stop-color:#F58220"/>
		</linearGradient>
		<path class="st9" d="M182.3,56.6c0,0-9.1,16.3-2.2,21c1.4,0.9,3.1,0.9,4.5-0.1C187,75.6,189.9,70.3,182.3,56.6z"/>
		<path class="st10" d="M185.8,188.4h5.5c0,0-5.6-10.3-16.4-8c-2.8,0.6-5,2.5-6,5.2c-1.5,4.2-1.7,10.5,9.5,13.2
			c0.3,0.1,0.6,0.1,0.9,0.1c1.9,0.1,9.1,0.3,10.9-3l-5.3-2.6c0,0,0.1,3.3-7.3,1.8S175.6,176.1,185.8,188.4z"/>
		<polygon class="st10" points="158.1,179.3 163.4,178.8 164.8,196.5 159.5,197.3 		"/>
		<path class="st10" d="M148.4,184.4l5.1-0.9c0,0,0.7-5.5-9.1-4.3s-11.3,9.1-2.4,10.2c8.2,1,8.9,4.8,1.6,4.6c-1.2,0-1.4,0.2-3.2-0.7
			c-0.7-0.4-2-1.4-2.1-2.3l-4.5,1.4c0,0,1.9,6.5,12.4,4.8c11.6-1.9,10.3-9.9,2.6-10.8c-6.5-0.8-8.6-1.5-7.3-3.1
			C143.4,181.2,147.7,181.2,148.4,184.4z"/>
		<polygon class="st10" points="111.8,185.4 130.4,182 130.7,185.1 117,187.7 117.3,191.5 130.8,188.9 131.1,192.2 117.8,194.4 
			118.2,198.4 131.6,196 131.9,199 113,202.9 		"/>
		<g>
			<g>
				<path class="st10" d="M172.1,253l1.8-0.5c0.4,1.2,0.9,2,1.5,2.4s1.4,0.5,2.3,0.2c0.9-0.3,1.6-0.7,1.9-1.4c0.3-0.7,0.3-1.5,0-2.6
					c-0.3-1-0.7-1.6-1.2-2s-1.4-0.6-2.6-0.8l-1.2-0.1c-1.3-0.1-2.4-0.5-3.1-1.1c-0.8-0.6-1.4-1.5-1.7-2.7c-0.4-1.5-0.3-2.7,0.3-3.8
					s1.6-1.8,3-2.2s2.6-0.3,3.6,0.3s1.8,1.7,2.3,3.3l-1.8,0.5c-0.7-2.1-1.9-2.9-3.6-2.4c-0.9,0.2-1.5,0.7-1.8,1.3s-0.3,1.4-0.1,2.4
					c0.2,0.9,0.6,1.5,1.2,1.8c0.5,0.4,1.4,0.6,2.5,0.7l1.2,0.1c1.3,0.1,2.4,0.5,3.2,1.1s1.4,1.6,1.8,3c0.4,1.6,0.4,2.9-0.2,4
					s-1.6,1.8-3.2,2.3c-1.5,0.4-2.8,0.3-3.8-0.4C173.3,255.8,172.6,254.7,172.1,253z"/>
				<path class="st10" d="M176.5,257.3c-0.9,0-1.6-0.2-2.3-0.6c-1.1-0.7-1.9-1.9-2.4-3.6l-0.1-0.2l2.3-0.6l0.1,0.2
					c0.4,1.1,0.8,1.9,1.4,2.3c0.6,0.4,1.3,0.4,2.1,0.2c0.9-0.2,1.4-0.7,1.7-1.2c0.3-0.6,0.3-1.4,0-2.4c-0.2-0.9-0.6-1.5-1.1-1.9
					c-0.5-0.3-1.3-0.6-2.5-0.7l-1.2-0.1c-1.3-0.2-2.4-0.5-3.3-1.1c-0.8-0.6-1.4-1.6-1.8-2.8c-0.4-1.5-0.3-2.9,0.3-4
					c0.6-1.2,1.7-1.9,3.2-2.4c1.4-0.4,2.7-0.3,3.8,0.3s1.9,1.8,2.4,3.4l0.1,0.2l-2.3,0.6l-0.1-0.2c-0.7-1.9-1.7-2.7-3.3-2.2
					c-0.8,0.2-1.4,0.6-1.7,1.2c-0.3,0.6-0.3,1.3-0.1,2.2c0.2,0.8,0.6,1.4,1.1,1.7s1.3,0.6,2.3,0.7l1.2,0.1c1.4,0.1,2.5,0.5,3.3,1.2
					c0.9,0.6,1.5,1.7,1.9,3.1c0.4,1.6,0.4,3-0.2,4.2c-0.6,1.1-1.7,1.9-3.3,2.4C177.6,257.2,177.1,257.3,176.5,257.3z M172.4,253.2
					c0.5,1.5,1.2,2.5,2.1,3.1c1,0.6,2.2,0.7,3.6,0.3c1.5-0.4,2.5-1.1,3-2.1s0.6-2.3,0.2-3.8c-0.4-1.3-0.9-2.3-1.7-2.8
					c-0.8-0.6-1.8-0.9-3.1-1.1l-1.2-0.1c-1.1-0.1-2-0.4-2.6-0.8c-0.6-0.4-1-1.1-1.3-2c-0.3-1-0.2-1.9,0.1-2.6c0.3-0.7,1-1.2,2-1.5
					c1.8-0.5,3.1,0.3,3.9,2.3l1.3-0.4c-0.5-1.4-1.2-2.4-2.1-2.9c-1-0.6-2.1-0.7-3.4-0.3c-1.4,0.4-2.3,1.1-2.9,2.1
					c-0.6,1-0.6,2.3-0.3,3.6c0.3,1.2,0.9,2,1.6,2.6c0.8,0.5,1.8,0.9,3,1l1.2,0.1c1.2,0.2,2.1,0.4,2.7,0.8c0.6,0.4,1,1.1,1.3,2.1
					c0.3,1.1,0.3,2.1,0,2.8s-1,1.2-2,1.5s-1.8,0.2-2.5-0.2c-0.6-0.4-1.2-1.2-1.6-2.3L172.4,253.2z"/>
			</g>
			<g>
				<path class="st10" d="M184.5,249.1l-3-7.2c-0.7-1.8-0.8-3.3-0.4-4.5s1.4-2.1,2.9-2.7c1.4-0.6,2.7-0.6,3.9-0.1s2.2,1.7,2.9,3.4
					l3,7.2c0.7,1.7,0.8,3.2,0.3,4.4s-1.4,2.1-2.8,2.7c-1.4,0.6-2.7,0.6-3.9,0.1S185.2,250.8,184.5,249.1z M192,246l-2.9-7
					c-0.5-1.3-1.2-2.1-1.9-2.5s-1.6-0.4-2.5-0.1c-1,0.4-1.6,1-1.8,1.8s-0.1,1.9,0.5,3.1l2.9,7c1,2.4,2.4,3.1,4.3,2.4
					c0.9-0.4,1.5-1,1.7-1.7C192.6,248.2,192.5,247.2,192,246z"/>
				<path class="st10" d="M189.2,253.1c-0.7,0-1.3-0.1-1.9-0.4c-1.3-0.5-2.3-1.7-3-3.5l-3-7.2c-0.8-1.8-0.9-3.4-0.4-4.7
					s1.5-2.2,3-2.8s2.9-0.6,4.1-0.1c1.3,0.5,2.3,1.7,3,3.6l3,7.2c0.7,1.8,0.8,3.3,0.3,4.6s-1.5,2.2-3,2.8
					C190.6,252.9,189.9,253.1,189.2,253.1z M186.2,234.5c-0.7,0-1.4,0.1-2.1,0.4c-1.3,0.6-2.3,1.4-2.7,2.6c-0.5,1.1-0.3,2.6,0.4,4.3
					l3,7.2c0.7,1.7,1.6,2.8,2.8,3.2c1.1,0.5,2.4,0.5,3.7-0.1c1.3-0.5,2.2-1.4,2.7-2.6c0.5-1.2,0.4-2.6-0.3-4.2l-3-7.2
					c-0.7-1.7-1.6-2.8-2.8-3.3C187.3,234.6,186.8,234.5,186.2,234.5z M189.3,251.2c-0.5,0-0.9-0.1-1.3-0.3c-0.8-0.4-1.4-1.3-1.9-2.5
					l-2.9-7c-0.5-1.3-0.7-2.4-0.5-3.3c0.2-0.9,0.9-1.6,1.9-2s1.9-0.4,2.7,0.1s1.5,1.3,2,2.7l2.9,7c0.5,1.2,0.6,2.3,0.4,3.1
					c-0.3,0.9-0.9,1.5-1.9,1.9C190.3,251.1,189.8,251.2,189.3,251.2z M186,236.3c-0.4,0-0.7,0.1-1.1,0.3c-0.9,0.4-1.4,0.9-1.6,1.6
					c-0.2,0.8-0.1,1.8,0.5,3l2.9,7c0.5,1.1,1,1.9,1.7,2.2c0.7,0.4,1.4,0.4,2.3,0c0.8-0.3,1.3-0.9,1.6-1.6c0.2-0.7,0.1-1.7-0.4-2.8
					l-2.9-7c-0.5-1.2-1.1-2-1.8-2.4C186.7,236.4,186.4,236.3,186,236.3z"/>
			</g>
			<g>
				<path class="st10" d="M197.1,243.6l-3.9-6.7c-0.9-1.6-1.2-3.1-0.9-4.4c0.3-1.3,1.2-2.3,2.5-3.1c1.3-0.7,2.6-0.9,3.8-0.6
					c1.3,0.3,2.3,1.3,3.2,2.8l0.1,0.2l-1.7,1l-0.1-0.2c-0.6-1.1-1.3-1.8-2.1-2s-1.6-0.1-2.4,0.3c-0.9,0.5-1.4,1.2-1.5,2
					s0.2,1.9,0.9,3.1l3.8,6.6c1.3,2.2,2.8,2.8,4.6,1.8c0.8-0.5,1.3-1.1,1.5-1.9c0.2-0.8,0-1.7-0.7-2.8l-0.1-0.2l1.7-1l0.1,0.2
					c0.9,1.6,1.2,3,0.8,4.2s-1.2,2.2-2.4,2.9c-1.3,0.8-2.6,1-3.9,0.6C199.1,246.2,198,245.2,197.1,243.6z"/>
				<path class="st10" d="M201.6,247c-0.4,0-0.9-0.1-1.3-0.2c-1.3-0.4-2.5-1.4-3.5-3.1L193,237c-1-1.7-1.3-3.2-0.9-4.6
					c0.3-1.3,1.2-2.4,2.6-3.2c1.3-0.8,2.7-1,4-0.7s2.5,1.3,3.4,3l0.2,0.4l-2.1,1.2l-0.2-0.4c-0.6-1-1.3-1.7-2-1.9s-1.4-0.1-2.2,0.3
					c-0.8,0.5-1.3,1.1-1.4,1.8c-0.1,0.8,0.2,1.7,0.8,2.9l3.8,6.6c0.6,1.1,1.3,1.7,2,2s1.5,0.2,2.3-0.3c0.8-0.4,1.2-1,1.4-1.7
					s-0.1-1.6-0.6-2.6l-0.2-0.4l2.1-1.2l0.3,0.5c0.9,1.6,1.2,3.1,0.8,4.4c-0.4,1.3-1.2,2.3-2.5,3.1C203.5,246.7,202.6,247,201.6,247
					z M197.3,243.5c0.9,1.6,2,2.5,3.2,2.9c1.2,0.3,2.5,0.1,3.7-0.6c1.2-0.7,2-1.6,2.3-2.8s0.1-2.5-0.8-4l0,0l-1.2,0.7
					c0.6,1.1,0.9,2.1,0.7,2.9c-0.2,0.9-0.7,1.5-1.6,2c-1,0.6-1.9,0.7-2.7,0.4s-1.6-1.1-2.2-2.2l-3.8-6.6c-0.7-1.3-1-2.3-0.9-3.2
					s0.7-1.6,1.7-2.2c0.9-0.5,1.7-0.6,2.6-0.3c0.8,0.3,1.6,1,2.2,2.1l1.3-0.7c-0.9-1.5-1.9-2.4-3.1-2.7c-1.2-0.3-2.4-0.1-3.6,0.6
					c-1.3,0.7-2.1,1.7-2.4,2.9c-0.3,1.2,0,2.6,0.9,4.2L197.3,243.5z"/>
			</g>
			<g>
				<path class="st10" d="M202.9,224.5l10.7,15.2l-1.6,1.1l-10.7-15.2L202.9,224.5z"/>
				<path class="st10" d="M212,241.2l-11-15.6l2-1.4l11,15.6L212,241.2z M201.7,225.7l10.5,14.8l1.2-0.8l-10.5-14.8L201.7,225.7z"/>
			</g>
			<g>
				<path class="st10" d="M215.6,232.3l2.2,4.4l-1.6,1.3l-8.3-17.4l1.4-1.2l16,10.8l-1.6,1.4l-4-2.8L215.6,232.3z M210.6,222.2
					l4.3,8.5l3.5-3L210.6,222.2z"/>
				<path class="st10" d="M216.2,238.4l-8.5-17.9l1.7-1.4l16.4,11.1l-2,1.7l-4-2.8l-3.8,3.3l2.2,4.4L216.2,238.4z M208.3,220.6
					l8.1,17l1.2-1l-2.2-4.4l4.4-3.8l4,2.8l1.2-1l-15.6-10.5L208.3,220.6z M214.8,231.1l-4.9-9.7l8.8,6.3L214.8,231.1z M211.3,223
					l3.7,7.3l3-2.6L211.3,223z"/>
			</g>
			<g>
				<path class="st10" d="M215.2,213.8l12.5,11.3l4.2-4.7l1.3,1.2l-5.6,6.1l-13.8-12.5L215.2,213.8z"/>
				<path class="st10" d="M227.6,228.1l-0.2-0.2l-14-12.7l1.7-1.8l0.2,0.2l12.3,11.2l4.2-4.7l1.7,1.5L227.6,228.1z M214.2,215.2
					l13.4,12.2l5.2-5.8l-0.9-0.8l-4.2,4.7l-0.2-0.2l-12.3-11.2L214.2,215.2z"/>
			</g>
			<g>
				<path class="st10" d="M233.8,212.5l1-1.6c1.1,0.6,2,0.9,2.7,0.8c0.7-0.1,1.4-0.6,1.9-1.4c0.5-0.8,0.7-1.6,0.5-2.3
					s-0.8-1.4-1.7-2c-0.8-0.5-1.6-0.8-2.2-0.7c-0.7,0.1-1.5,0.5-2.4,1.1l-0.9,0.7c-1.1,0.8-2.1,1.2-3.1,1.3s-2-0.2-3.1-0.9
					c-1.3-0.8-2.1-1.8-2.4-3c-0.3-1.2,0-2.4,0.8-3.7c0.8-1.2,1.7-1.9,2.9-2.2c1.2-0.2,2.5,0.1,3.9,0.9l-1,1.6
					c-1.9-1.1-3.3-0.8-4.3,0.7c-0.5,0.8-0.7,1.5-0.5,2.2s0.7,1.3,1.6,1.8c0.7,0.5,1.4,0.7,2.1,0.6c0.7-0.1,1.4-0.5,2.3-1.1l1-0.7
					c1.1-0.8,2.1-1.2,3.1-1.3s2.1,0.2,3.3,1c1.4,0.9,2.2,1.9,2.5,3.1c0.3,1.2,0,2.5-0.9,3.8s-1.9,2.1-3.1,2.3
					C236.7,213.8,235.3,213.4,233.8,212.5z"/>
				<path class="st10" d="M237.2,213.9c-1.1,0-2.2-0.4-3.5-1.1l-0.2-0.1l1.3-2l0.2,0.1c1,0.6,1.9,0.8,2.6,0.7
					c0.7-0.1,1.2-0.5,1.7-1.3s0.6-1.4,0.5-2.1c-0.2-0.6-0.7-1.2-1.6-1.8c-0.8-0.5-1.5-0.7-2.1-0.6c-0.6,0.1-1.4,0.4-2.3,1.1
					l-0.9,0.7c-1.1,0.8-2.2,1.2-3.2,1.4c-1,0.1-2.1-0.2-3.2-0.9c-1.3-0.8-2.1-1.9-2.5-3.2c-0.3-1.3,0-2.6,0.8-3.9
					c0.8-1.2,1.8-2,3-2.3s2.6,0.1,4.1,0.9l0.2,0.1l-1.3,2l-0.2-0.1c-1.8-1-3.1-0.8-4,0.6c-0.5,0.7-0.6,1.4-0.4,2
					c0.2,0.6,0.7,1.2,1.4,1.7c0.7,0.4,1.3,0.6,1.9,0.6c0.6-0.1,1.3-0.4,2.2-1.1l1-0.7c1.1-0.8,2.2-1.3,3.3-1.4
					c1.1-0.1,2.2,0.2,3.5,1c1.4,0.9,2.3,2,2.6,3.3s0,2.6-0.9,4s-2,2.2-3.3,2.4C237.7,213.8,237.4,213.9,237.2,213.9z M234.2,212.4
					c1.3,0.8,2.5,1.1,3.6,0.9c1.1-0.2,2.1-0.9,2.9-2.2c0.8-1.3,1.1-2.5,0.8-3.6s-1.1-2.1-2.4-3c-1.1-0.7-2.2-1.1-3.1-1
					c-1,0.1-2,0.5-3,1.3l-1,0.7c-0.9,0.7-1.7,1.1-2.4,1.1c-0.7,0.1-1.5-0.1-2.3-0.6c-0.9-0.6-1.4-1.2-1.7-2
					c-0.2-0.8-0.1-1.6,0.5-2.4c1-1.6,2.5-1.9,4.4-0.9l0.7-1.1c-1.3-0.7-2.5-1-3.5-0.7c-1.1,0.2-2,0.9-2.7,2.1
					c-0.8,1.2-1,2.4-0.7,3.5s1,2.1,2.2,2.9c1,0.7,2,0.9,2.9,0.8c0.9-0.1,1.9-0.5,2.9-1.3l0.9-0.7c1-0.7,1.8-1.1,2.6-1.2
					c0.7-0.1,1.5,0.1,2.4,0.7c1,0.6,1.6,1.4,1.8,2.1c0.2,0.8,0.1,1.6-0.5,2.5s-1.2,1.4-2,1.5c-0.7,0.1-1.7-0.1-2.7-0.7L234.2,212.4z
					"/>
			</g>
			<g>
				<path class="st10" d="M236.9,197.2l2.4-4.9l1.6,0.8l-2.4,4.9l6.1,3l2.8-5.7l1.6,0.8l-3.7,7.4l-16.7-8.3l3.7-7.4l1.6,0.8
					l-2.8,5.7L236.9,197.2z"/>
				<path class="st10" d="M245.4,203.9l-17.1-8.5l3.9-7.9l2,1l-2.8,5.7l5.4,2.7l2.4-4.9l2,1l-2.4,4.9l5.7,2.8l2.8-5.7l2,1
					L245.4,203.9z M229,195.2l16.3,8l3.5-7l-1.1-0.6l-2.8,5.7l-6.6-3.3l2.4-4.9l-1.1-0.6l-2.4,4.9l-6.3-3.1l2.8-5.7l-1.1-0.6
					L229,195.2z"/>
			</g>
			<g>
				<path class="st10" d="M245.6,190.4l-7.3-2.6c-1.8-0.6-3-1.6-3.5-2.8s-0.6-2.5-0.1-3.9s1.3-2.4,2.5-2.9c1.2-0.6,2.6-0.6,4.3,0.1
					l0.2,0.1l-0.7,1.9l-0.2-0.1c-1.2-0.4-2.2-0.5-2.9-0.2s-1.3,0.9-1.6,1.8c-0.4,1-0.3,1.8,0.1,2.5c0.4,0.7,1.3,1.3,2.6,1.8l7.2,2.6
					c2.4,0.9,4,0.3,4.7-1.6c0.3-0.9,0.3-1.7-0.1-2.4c-0.4-0.7-1.1-1.3-2.3-1.7l-0.2-0.1l0.7-1.8l0.3,0.1c1.7,0.6,2.8,1.5,3.3,2.7
					s0.5,2.4,0,3.8c-0.5,1.4-1.4,2.4-2.6,3S247.3,191.1,245.6,190.4z"/>
				<path class="st10" d="M248.1,191.2c-0.8,0-1.7-0.2-2.7-0.5l-7.3-2.6c-1.8-0.7-3.1-1.6-3.7-2.9c-0.6-1.3-0.6-2.6-0.1-4.1
					c0.5-1.4,1.4-2.5,2.6-3.1c1.2-0.6,2.7-0.6,4.5,0.1l0.5,0.2l-0.8,2.3l-0.4-0.1c-1.1-0.4-2.1-0.5-2.7-0.2
					c-0.7,0.3-1.2,0.8-1.4,1.6c-0.3,0.9-0.3,1.7,0.1,2.3c0.4,0.7,1.3,1.2,2.5,1.7l7.2,2.6c1.1,0.4,2.1,0.5,2.8,0.2s1.2-0.8,1.5-1.7
					c0.3-0.8,0.3-1.5-0.1-2.2c-0.3-0.6-1.1-1.2-2.2-1.6l-0.5-0.2l0.8-2.3l0.5,0.2c1.8,0.6,2.9,1.6,3.5,2.8s0.6,2.6,0.1,4
					c-0.5,1.5-1.5,2.6-2.7,3.1C249.5,191.1,248.9,191.2,248.1,191.2z M239,178c-0.7,0-1.2,0.1-1.8,0.4c-1.1,0.5-1.9,1.5-2.4,2.8
					c-0.5,1.4-0.5,2.6,0.1,3.8c0.5,1.1,1.7,2,3.4,2.6l7.3,2.6c1.7,0.6,3.1,0.7,4.3,0.1c1.1-0.5,2-1.5,2.5-2.9c0.5-1.3,0.5-2.5,0-3.6
					s-1.6-1.9-3.2-2.5l0,0l-0.5,1.3c1.2,0.4,2,1,2.4,1.8s0.4,1.6,0.1,2.6c-0.4,1.1-1,1.7-1.9,2c-0.8,0.3-1.9,0.2-3.1-0.2l-7.2-2.6
					c-1.4-0.5-2.3-1.1-2.8-1.9c-0.5-0.8-0.5-1.7-0.2-2.8c0.3-0.9,0.9-1.6,1.7-1.9c0.8-0.3,1.8-0.3,3,0.2l0.5-1.4
					C240.5,178.1,239.7,178,239,178z"/>
			</g>
			<g>
				<path class="st10" d="M253.4,177.6c-0.8,0.2-1.7,0.2-2.7,0l-13.5-3.3l0.5-1.9l13.4,3.3c1,0.3,1.9,0.2,2.6-0.2
					c0.7-0.4,1.1-1,1.3-1.9s0.1-1.6-0.3-2.3c-0.4-0.6-1.2-1.1-2.2-1.3l-13.4-3.3l0.5-1.9l13.5,3.3c1.5,0.4,2.5,1.1,3.2,2.2
					c0.7,1.1,0.8,2.3,0.5,3.7c-0.2,0.9-0.6,1.7-1.2,2.3C254.9,176.9,254.2,177.4,253.4,177.6z"/>
				<path class="st10" d="M252.1,178c-0.5,0-1-0.1-1.5-0.2l-13.7-3.4l0.6-2.4l13.6,3.4c1,0.2,1.8,0.2,2.4-0.1c0.6-0.3,1-0.9,1.2-1.7
					s0.1-1.5-0.3-2.1c-0.4-0.6-1.1-1-2-1.2l-13.6-3.4l0.6-2.4l13.7,3.4c1.5,0.4,2.6,1.1,3.3,2.3c0.7,1.1,0.9,2.5,0.5,3.9
					c-0.2,0.9-0.7,1.8-1.3,2.4c-0.6,0.7-1.4,1.1-2.2,1.3l0,0C253,177.9,252.5,178,252.1,178z M237.5,174.1l13.2,3.3
					c0.9,0.2,1.8,0.2,2.5,0l0,0c0.8-0.2,1.5-0.6,2-1.2c0.5-0.6,0.9-1.3,1.1-2.2c0.3-1.3,0.2-2.5-0.5-3.5c-0.6-1-1.6-1.7-3-2.1
					l-13.2-3.3l-0.4,1.4l13.1,3.2c1.1,0.3,1.9,0.7,2.3,1.4c0.5,0.7,0.6,1.5,0.4,2.5c-0.2,0.9-0.7,1.6-1.5,2
					c-0.7,0.4-1.6,0.5-2.7,0.2l-13.1-3.2L237.5,174.1z"/>
			</g>
			<g>
				<path class="st10" d="M250.7,161.9l8.1,1.2l-0.3,1.9l-18.4-2.8l0.7-4.9c0.2-1.6,0.9-2.7,1.8-3.3c1-0.6,2.3-0.8,4.1-0.5
					c2.6,0.4,4.1,1.6,4.4,3.5l8.9-2l-0.3,2.1l-8.5,1.8L250.7,161.9z M249.4,158.7c0.1-0.9,0-1.7-0.6-2.2c-0.5-0.5-1.3-0.9-2.5-1
					c-1.2-0.2-2.1-0.1-2.7,0.2s-1,1-1.2,2l-0.4,2.9l6.9,1.1L249.4,158.7z"/>
				<path class="st10" d="M258.7,165.3l-18.9-2.9l0.8-5.1c0.3-1.7,0.9-2.9,1.9-3.5s2.4-0.8,4.3-0.5c2.6,0.4,4.2,1.5,4.6,3.4l9-2
					l-0.4,2.6h-0.2l-8.4,1.8l-0.4,2.5l8.1,1.2L258.7,165.3z M240.3,162l17.9,2.7l0.2-1.5l-8.1-1.2l0.5-3.4h0.2l8.4-1.8l0.2-1.5
					l-8.7,2V157c-0.3-1.8-1.7-2.9-4.2-3.3c-1.7-0.3-3-0.1-3.9,0.5s-1.5,1.6-1.7,3.2L240.3,162z M249.2,161.9l-7.4-1.1l0.5-3.1
					c0.2-1.1,0.6-1.8,1.3-2.1c0.7-0.4,1.6-0.4,2.8-0.3c1.2,0.2,2.1,0.6,2.6,1.1c0.6,0.6,0.8,1.4,0.6,2.4L249.2,161.9z M242.3,160.4
					l6.4,1l0.4-2.6c0.1-0.9,0-1.5-0.5-2s-1.3-0.8-2.3-1c-1.1-0.2-2-0.1-2.5,0.2c-0.6,0.3-0.9,0.9-1.1,1.8L242.3,160.4z"/>
			</g>
			<g>
				<path class="st10" d="M241.9,147.8l18.6,1.7l-0.2,1.9l-18.6-1.7L241.9,147.8z"/>
				<path class="st10" d="M260.5,151.8l-19-1.8l0.2-2.4l19,1.8L260.5,151.8z M242,149.5l18.1,1.7l0.1-1.4l-18.1-1.7L242,149.5z"/>
			</g>
			<g>
				<path class="st10" d="M244.1,140.5l16.9,0.8l-0.1,1.9l-16.9-0.8l-0.2,3.8l-1.8-0.1l0.5-9.6l1.8,0.1L244.1,140.5z"/>
				<path class="st10" d="M244.1,146.6l-2.3-0.1l0.5-10.1l2.3,0.1l-0.2,3.8l16.9,0.8l-0.1,2.4H261l-16.6-0.8L244.1,146.6z
					 M242.4,146l1.3,0.1l0.2-3.8h0.2l16.6,0.8l0.1-1.4l-16.9-0.8l0.2-3.8l-1.3-0.1L242.4,146z"/>
			</g>
			<g>
				<path class="st10" d="M261.2,130.5v1.9h-7.7l-10.9,4.1v-2.2l8.5-2.9l-8.5-2.9v-2.2l10.9,4.1L261.2,130.5z"/>
				<path class="st10" d="M242.3,136.9v-2.7l8-2.7l-8-2.7v-2.7l11.2,4.2h8v2.4h-8L242.3,136.9z M242.8,134.6v1.6l10.6-4h7.5v-1.4
					h-7.5l0,0l-10.5-3.9v1.6l9.1,3L242.8,134.6z"/>
			</g>
		</g>
		<g>
			<path class="st10" d="M53.8,142.6L40,142.8v-2.7l7.5-0.1l-0.1-4.1l1.2-1l0.1,5.1l5-0.1l-0.1-4.3l-4.8,0.1l-0.3-0.1l-0.6-0.2
				c-0.3-0.1-0.5-0.3-0.8-0.6c-0.2-0.2-0.3-0.5-0.4-1c0-0.1,0-0.2-0.1-0.3v-0.3v-1.5c0-0.1,0-0.3,0.1-0.4v1.2l-2.7,1.8l-1,0.8
				l-1.6,1.4l-0.6,0.6l-1-1.2v-1.2c0.1-0.3,0.6-0.8,1.5-1.4l5.1-3.6l1.3-0.8l0.9-0.5l0.9-0.5l0.8,1.2v1.2l-1.6,0.9
				c-0.3,0.2-0.5,0.3-0.6,0.4l-0.3,0.7l0.1,0.3l0.2,0.2l0.4,0.2h0.6h0.4l4-0.1l-0.1-6.8h1.2l0.3,18.8h-1.2L53.8,142.6z"/>
			<path class="st10" d="M54.5,149.6l-13.7,1.3l-0.2-2.7l13.7-1.3l-0.3-2.8l1.2-0.1l0.8,8.3l-1.2,0.1L54.5,149.6z"/>
			<path class="st10" d="M56.7,164.6l-13.6,2.2l-0.4-2.6l7.2-1.2l-0.7-4.1l-2,0.3l-0.3,0.1c0,0-0.1,0-0.2,0l-0.2-0.2l-0.1-0.4
				l-0.2-1.1c0-0.2,0-0.4,0.2-0.8c0-0.1,0.1-0.2,0.4-0.5c0.4-0.6,0.7-1,1-1.2c0.4-0.5,0.9-0.8,1.2-0.9h0.4c0.1,0.1,0.2,0.2,0.3,0.3
				l0.1,0.1l0.1,0.3l0.2,1.2l5.1-0.8l-0.6-3.6l1.2-0.2l2.5,15.1l-1.2,0.2L56.7,164.6z M56.2,161.9l-0.7-4.1l-5.1,0.8l0.7,4.1
				L56.2,161.9z"/>
			<path class="st10" d="M58.3,171.1l-13.4,3.2l-0.6-2.6l13.4-3.2l-0.7-2.8l1.2-0.3l1.9,8.1l-1.2,0.3L58.3,171.1z"/>
			<path class="st10" d="M64.3,187.6l0.4-0.9l0.5-0.9c0.1-0.3,0.3-0.5,0.4-0.8c0-0.1,0.1-0.2,0.2-0.4c0.1-0.4,0.2-0.6,0.3-0.8l0.6-2
				c0.2-0.5,0.3-1.2,0.3-1.9c0.1-0.7,0.1-1.3,0-1.8c-0.2-0.3-0.3-0.6-0.5-0.7c-0.4-0.5-1-0.8-1.9-0.9c-0.6,0-1,0.1-1.4,0.2l-0.5,0.2
				l-0.6,0.3l-0.5,0.3l-0.2,0.2l0.7,2.4l-1.1,0.3l-0.7-2.4L47,182l-0.8-2.6l13.2-3.9l-0.7-2.4l1.1-0.3l0.8,2.5l0.2-0.2l0.6-0.4
				l0.7-0.4l0.4-0.2c0.5-0.2,1.1-0.3,1.7-0.2c1.8,0.2,3.1,1.3,3.7,3.3l0.4,1.1c0.2,0.6,0.3,1.4,0.2,2.4c-0.1,1.8-0.5,3.6-1.2,5.2
				l-1.1,2.5l-0.6,1.1l-0.6,1.1l-0.3-1.1L64.3,187.6z"/>
			<path class="st10" d="M67.2,196.2l-12.7,5.3l-1-2.5l8.3-3.5l-1.3-3.1c0,0.2-0.1,0.3-0.4,0.6l-1,1l-0.8,0.7l-0.7,0.4
				c-0.2,0.1-0.4,0.2-0.5,0.2c-0.6,0.2-1.3,0.2-2,0c-0.4-0.1-0.8-0.4-1.1-0.7c-0.4-0.4-0.6-0.8-0.8-1.2l-0.4-1.1
				c-0.3-0.7-0.4-1.3-0.3-1.9c0.1-1.3,0.7-2.6,1.8-3.9c0.6-0.7,1.1-1.3,1.7-1.8l1.2-1.1l0.5-0.4L59,184l0.4,1.1l-0.2,0.1
				c-0.1,0-0.2,0.1-0.3,0.2l-1.3,1.1c-0.9,0.8-1.7,1.7-2.4,2.7c-0.8,1.3-1.2,2.4-1.1,3.3l0.3,0.3l0.5,0.2c0.6,0.1,1.1,0.1,1.7-0.2
				c1-0.4,1.8-1.2,2.5-2.3l0.7-1.1c0.2-0.3,0.3-0.5,0.3-0.6l2.7,6.4l3.4-1.4l-5.7-13.6l1.1-0.5l7.7,18.3l-1.1,0.5L67.2,196.2z"/>
			<path class="st10" d="M74.1,207.4l-2.8,1.9l0.5,0.3l0.5,0.4l0.4,0.5l0.7,1c0.3,0.4,0.5,0.9,0.6,1.5c0.2,1.1,0,2-0.5,2.8
				c-0.3,0.5-0.7,0.8-1.1,1.1c-0.9,0.6-2.2,0.9-3.8,0.7l-1-0.1l-1.3-0.2l-0.6-1l0.1-1.6l0.2,0.1c0.1,0.1,0.7,0.2,1.8,0.3
				c1.5,0.1,2.5-0.1,3.2-0.6c0.3-0.2,0.6-0.5,1-1c0.1-0.4,0.2-0.7,0.2-1l-0.1-0.6c-0.4-0.4-1-0.6-1.9-0.7c-0.4,0-0.8,0-1.4,0.1
				c-0.4,0.1-0.8,0.3-1,0.4l-5.2,3.4l-1.5-2.2l2.9-2c-0.2-0.2-0.5-0.3-0.6-0.5l-0.5-0.6l-0.6-1c-0.6-0.9-0.8-2-0.7-3
				c0.1-0.6,0.2-1.1,0.5-1.5s0.7-0.8,1.2-1.1c1-0.6,2-0.8,3-0.6c0.8,0.2,1.5,0.6,2,1.1c0.2,0.2,0.4,0.4,0.5,0.6l0.7,1l0.3,0.4
				c0,0.2,0.1,0.4,0.2,0.5c0.1,0.3,0.1,0.5,0.2,0.6l-1,0.7l-0.6-1l-0.1-0.3V206v-0.2c0,0,0-0.1,0-0.2c-0.3-0.3-0.8-0.5-1.4-0.6
				c-0.7-0.1-1.4,0.1-2.1,0.5c-0.6,0.4-1.1,1-1.3,1.6l-0.1,0.7c0,0.2,0.1,0.5,0.2,0.7c0.2,0.2,0.3,0.3,0.5,0.4l0.7,0.3l0.5,0.1
				c0.6,0.1,1,0.1,1.3-0.1l6-4l-4.9-7.4l1-0.7l11,16.6l-1,0.7L74.1,207.4z"/>
			<path class="st10" d="M99.6,232l-8.2,11.1l-2.2-1.6l4.5-6.1l-3.3-2.4l-0.1-1.6l4.1,3l3-4.1l-3.5-2.5l-2.9,3.9l-0.2,0.2l-0.5,0.4
				c-0.2,0.2-0.5,0.2-0.9,0.2c-0.3,0-0.6-0.1-1-0.3c-0.1-0.1-0.2-0.1-0.3-0.2l-0.3-0.1l-1.2-0.9c-0.1-0.1-0.2-0.2-0.3-0.3l1,0.7
				l-0.2,3.3v1.3l0.2,2.1l0.1,0.9l-1.5,0.1l-0.9-0.7c-0.2-0.3-0.3-1-0.2-2l0.2-6.2l0.1-1.6l0.1-1l0.1-1.1l1.5,0.1l0.9,0.7l-0.3,1.8
				c0,0.3-0.1,0.6,0,0.8l0.3,0.7l0.3,0.1h0.3l0.4-0.2l0.4-0.5l0.2-0.4l2.4-3.2l-5.5-4l0.7-1l15.2,11.2l-0.7,1L99.6,232z"/>
			<path class="st10" d="M89.7,249.4c-0.6-0.2-1.1-0.4-1.6-0.6l-1-0.6c-0.8-0.5-1.6-1.2-2.4-2.3c-0.3-0.4-0.6-0.8-0.7-1
				s-0.3-0.5-0.5-0.9c-0.3-0.6-0.5-1-0.6-1.4l1.5-0.6l1,0.6l0.5,1.2l0.4,0.9c0.1,0.1,0.2,0.4,0.5,0.8c0.5,0.8,1.1,1.4,1.6,1.9
				c0.3,0.1,0.6,0.2,0.9,0.2c0.7,0.2,1.3,0.1,2-0.2c0.2-0.1,0.4-0.4,0.7-0.7c0.1-0.2,0.1-0.4,0.2-0.7l-0.1-0.7l-0.1-0.4l-0.2-0.3
				l-0.5-0.1c-0.2,0-0.3,0-0.5,0l-0.9,0.2l-1-0.6l-0.5-1.4l0.5-0.1h0.9c0.4,0,0.8,0.1,1.3,0.2c0.3,0.1,0.7,0.2,1.1,0.4l1,0.5
				c0.4,0.2,0.8,0.5,1,0.8c0.5,0.6,0.7,1.3,0.6,2.2c-0.1,0.5-0.2,0.9-0.4,1.3C93.2,249.5,91.7,250,89.7,249.4z"/>
			<path class="st10" d="M111.2,237.8l-1.7,3.4c-0.4,0.8-1,1.3-1.8,1.5s-1.6,0.1-2.3-0.3l-1-0.5l-0.5-0.2c-0.2-0.1-0.3-0.2-0.4-0.4
				l1.1,0.5l0.6,3.6l0.3,1.3l0.6,2.1l0.3,0.9l-1.4,0.4l-1-0.5c-0.2-0.3-0.5-1-0.8-2.1c-0.4-1.4-0.7-3-0.9-4.6l-0.2-1.6l-0.1-1.6
				l-0.1-1.2l-0.1-1.2l1.4-0.3l1,0.5l0.2,2.3c0,0.4,0.2,0.8,0.7,1.1l0.5,0.1c0.3,0,0.7-0.1,1-0.4c0.2-0.2,0.4-0.4,0.5-0.7l1.6-3.3
				l-7.2-3.5l0.5-1.1l11.7,5.7l-0.5,1.1L111.2,237.8z"/>
			<path class="st10" d="M121.9,247.8l-0.8-0.1l-0.9-0.2l-1.1-0.4l-1.1-0.4l-1-0.4l-1.5-0.9l-0.3-0.3l-0.4,0.1l-0.4,0.1
				c-0.9,0.3-1.5,0.9-1.7,1.7c-0.2,0.5-0.2,0.9-0.2,1.2c0.1,0.3,0.2,0.6,0.5,1l0.4,0.4l0.6,0.3h0.1h0.1v-0.1l0.2-0.4l0.3-0.6
				l0.4-0.3c0.2-0.1,0.4-0.1,0.5-0.1l0.6,0.1l1.1,0.4c0.2,0.1,0.4,0.2,0.5,0.3s0.2,0.3,0.3,0.5l0.1,0.6l-0.1,0.6l-0.2,0.4l-0.3,0.3
				c-0.1,0.1-0.3,0.1-0.4,0.2h-0.5l0.1,0.6l0.3,0.6l0.3,0.5l0.4,0.6l-1.5,0.4l-1.1-0.4l-0.2-0.3l-0.4-0.7l-0.2-0.7v-0.3v-0.2v-0.2
				h-0.2l-0.2-0.1l-1.1-0.4c-0.3-0.1-0.8-0.4-1.5-0.8c-0.4-0.3-0.7-0.7-1-1.2c-0.2-0.3-0.3-0.8-0.4-1.4c0-0.5,0.1-1.1,0.3-1.6
				c0.2-0.4,0.4-0.8,0.7-1.1c0.3-0.3,0.8-0.6,1.3-0.8l0.7-0.2l0.9-0.2c-0.2-0.2-0.3-0.4-0.4-0.6l-0.2-1c-0.1-0.3-0.1-0.6-0.1-0.9
				l0.2-0.9c0.3-0.8,0.7-1.3,1.4-1.5c0.4-0.1,0.8-0.2,1.2-0.2c0.3,0,0.7,0.1,1.1,0.2l1.1,0.4c0.4,0.1,0.8,0.3,1.1,0.6
				c0.7,0.5,1.1,1.2,1.2,1.9c0,0.4,0,0.8-0.2,1.2c-0.1,0.4-0.5,0.8-1,1.3c-0.2,0.1-0.4,0.2-0.6,0.3l-0.5,0.2l-0.7,0.2l0.2,0.2
				l0.2,0.1l0.6,0.3c0.3,0.1,0.5,0.2,0.6,0.3c0.3,0.1,0.5,0.2,0.8,0.2l0.7,0.1h0.9c0.3,0,0.5,0,0.6,0c0,0,0.2-0.1,0.5-0.1l1.1,0.4
				l-0.5,1.3L121.9,247.8z M117.6,240.8L117.6,240.8l-0.1-0.2l-0.3-0.3c-0.1,0-0.2,0-0.3,0l-0.3,0.1c-0.2,0-0.3,0.2-0.5,0.3
				l-0.3,0.5c-0.2,0.6-0.2,1.2,0,1.9v0.1v0.1v0.1l0.1,0.1h0.1h0.1c0.8-0.2,1.3-0.7,1.5-1.5C117.9,241.5,117.8,241.2,117.6,240.8z
				 M120.6,241.3l0.4-1.1l1.8,0.6l-0.4,1.1L120.6,241.3z"/>
			<path class="st10" d="M127.1,243.2l-3.6,13.3l-2.6-0.7l3.6-13.3l-2.7-0.7l0.3-1.1l8.1,2.2l-0.3,1.1L127.1,243.2z"/>
			<path class="st10" d="M134.2,244.8l-2.8,13.5l-2.6-0.5l2.8-13.5l-2.8-0.6l0.2-1.2l8.2,1.7l-0.2,1.2L134.2,244.8z"/>
		</g>
		<g>
			<g>
				<path class="st10" d="M111.6,168.7l1,2.7l0.4-0.4l0.4-0.3l0.5-0.2l0.9-0.4c0.4-0.2,0.9-0.2,1.4-0.2c1,0,1.7,0.4,2.3,1
					c0.3,0.3,0.6,0.7,0.7,1.1c0.3,0.9,0.3,2-0.1,3.3l-0.3,0.8l-0.4,1l-0.9,0.3l-1.3-0.4l0.1-0.1c0.1-0.1,0.3-0.6,0.6-1.4
					c0.3-1.2,0.4-2.2,0.1-2.8c-0.1-0.3-0.3-0.6-0.7-1.1c-0.3-0.2-0.6-0.3-0.8-0.4H115c-0.4,0.2-0.7,0.7-0.9,1.5
					c-0.1,0.3-0.2,0.7-0.2,1.1c0,0.4,0.1,0.7,0.2,1l1.9,5l-2.2,0.8l-1.1-2.9c-0.2,0.2-0.4,0.3-0.5,0.4l-0.6,0.3l-0.9,0.3
					c-0.9,0.3-1.8,0.3-2.7,0c-0.5-0.2-0.9-0.4-1.2-0.7c-0.3-0.3-0.5-0.7-0.7-1.2c-0.4-0.9-0.3-1.8,0.1-2.6c0.3-0.6,0.8-1.1,1.3-1.5
					c0.2-0.1,0.4-0.2,0.6-0.3l0.9-0.4l0.4-0.1c0.2,0,0.3,0,0.5,0s0.4,0,0.5,0l0.4,1l-0.9,0.4h-0.3h-0.1h-0.2c0,0-0.1,0-0.2,0
					c-0.3,0.2-0.6,0.6-0.8,1.1c-0.2,0.6-0.2,1.2,0.1,1.8c0.2,0.6,0.6,1.1,1.1,1.4l0.6,0.2c0.2,0,0.4,0,0.6,0
					c0.2-0.1,0.3-0.2,0.4-0.3l0.3-0.5l0.2-0.4c0.2-0.5,0.3-0.9,0.2-1.2l-2.2-5.8l-7.1,2.7l-0.4-1l16-6l0.4,1L111.6,168.7z"/>
				<path class="st10" d="M134.7,162.4l0.7,3.2c0.2,0.7,0,1.4-0.5,1.9c-0.5,0.6-1,0.9-1.7,1l-1,0.2l-0.5,0.1c-0.2,0-0.3,0-0.5,0
					l1-0.2l2.3,2.2l0.9,0.7l1.6,1.1l0.6,0.4l-0.7,1l-1,0.2c-0.3-0.1-0.9-0.4-1.6-1c-1-0.8-2-1.7-3-2.7l-1-1l-1-1l-0.7-0.8L128,167
					l0.9-0.9l1-0.2l1.4,1.5c0.2,0.3,0.6,0.4,1,0.4l0.4-0.2c0.2-0.1,0.4-0.4,0.5-0.8c0.1-0.2,0.1-0.5,0-0.8l-0.6-3.1l-6.8,1.4l-0.2-1
					l11-2.3l0.2,1L134.7,162.4z"/>
				<path class="st10" d="M141.3,161.4l1.5,11.8l-2.3,0.3l-1.5-11.8l-2.4,0.3l-0.1-1l7.1-0.9l0.1,1L141.3,161.4z"/>
				<path class="st10" d="M161.7,160.8l-0.3,11.9l-2.3-0.1l0.1-3l-0.1,0.1H159c-0.2,0.1-0.4,0.2-0.7,0.2h-0.7h-1
					c-0.6,0-1.1-0.1-1.4-0.2c-0.4-0.1-0.7-0.4-1.1-0.8c-0.4-0.4-0.7-0.8-0.9-1.2s-0.3-0.9-0.2-1.5c0-0.9,0.4-1.8,1.1-2.4
					c0.7-0.7,1.5-1,2.5-1h1l0.6,0.1c0.3,0,0.5,0,0.6,0.1l0.1,0.1l0.2,0.1l0.1,1.1h-1l-0.3-0.2l-0.3-0.1h-0.2h-0.2h-0.1H157
					c-0.2,0-0.3,0.1-0.5,0.2c-0.2,0.1-0.3,0.2-0.4,0.3l3.2,2.3l0.2-6.1l-8-0.2v-1l12.1,0.3v1L161.7,160.8z M155.2,165.6l-0.1,0.3
					v0.3c0,0.8,0.2,1.4,0.7,1.8l0.6,0.5l0.7,0.3l0.4-0.1c0.2-0.1,0.4-0.1,0.5-0.2l0.3-0.2l0.3-0.3L155.2,165.6z"/>
				<path class="st10" d="M168.8,161.6l-1.5,11.8l-2.3-0.3l1.5-11.8l-2.2-0.3l0.1-1l1.9,0.2c0.2-0.2-0.3-1.3-1.6-3.2
					c-0.5-0.7-0.9-1.2-1.5-1.5l-0.4,0.2l-0.4,0.3c-0.1,0.2-0.2,0.3-0.3,0.5s-0.2,0.4-0.2,0.5s-0.1,0.2-0.1,0.5c0,0.2,0,0.4,0,0.6
					s0.1,0.5,0.2,0.8l0.2,0.7l0.1,0.3l-1-0.1l-1.4-0.2l-0.2-0.4l-0.2-0.5l-0.1-0.6v-0.6c0-0.3,0.1-0.7,0.4-1.2
					c0.4-0.8,1-1.4,1.8-1.6c0.4-0.1,0.8-0.2,1.2-0.1l1,0.1c0.6,0.1,1.2,0.4,1.8,0.9c0.7,0.7,1.3,1.4,1.7,2.3l0.6,1.2l0.7,1.7
					l2.4,0.3l-0.1,1L168.8,161.6z"/>
				<path class="st10" d="M191.8,166l-0.5-0.7l-0.4-0.7c-0.1-0.2-0.3-0.5-0.4-0.7c-0.1-0.1-0.1-0.2-0.2-0.3
					c-0.2-0.3-0.4-0.5-0.5-0.6l-1.2-1.4c-0.3-0.4-0.7-0.7-1.2-1.1c-0.5-0.4-0.9-0.7-1.3-0.8c-0.3,0-0.6,0-0.8,0.1
					c-0.6,0.1-1.1,0.4-1.5,1c-0.3,0.4-0.4,0.8-0.5,1.1l-0.1,0.5v0.6v0.5v0.2l2.1,0.6l-0.3,1l-2-0.6l-3.2,11.4l-2.2-0.6l3.2-11.4
					l-2.1-0.6l0.3-1l2.2,0.6v-0.2v-0.6v-0.7l0.1-0.4c0.1-0.5,0.3-0.9,0.6-1.3c1-1.3,2.4-1.7,4.1-1.2l1,0.2c0.5,0.1,1.1,0.4,1.8,0.9
					c1.3,0.9,2.4,2,3.3,3.3l1.3,1.9l0.5,0.9l0.5,0.9l-1-0.3L191.8,166z"/>
				<path class="st10" d="M196.5,169.7l-4.5,11l-2.2-0.9l2.8-6.9l-3.4-1.4l-0.8,2l-0.2,0.3l-0.1,0.1l-0.3,0.1l-0.3-0.1l-0.9-0.4
					c-0.1,0-0.2-0.2-0.4-0.5l-0.5-1.3c-0.1-0.4-0.2-0.8-0.3-1.3c-0.1-0.3-0.1-0.6,0-0.7c0.1-0.3,0.3-0.5,0.6-0.5h0.2l0.3,0.1
					l6.4,2.6l1.3-3.2l-8.6-3.5l0.4-0.9l12.6,5.2l-0.4,0.9L196.5,169.7z"/>
			</g>
			
				<rect x="124.2" y="172.9" transform="matrix(0.9938 -0.1115 0.1115 0.9938 -18.6717 15.115)" class="st10" width="3.2" height="3.2"/>
			<rect x="145.3" y="170.2" class="st10" width="3.2" height="3.2"/>
			
				<rect x="170" y="170.9" transform="matrix(6.977069e-02 -0.9976 0.9976 6.977069e-02 -12.4541 331.6574)" class="st10" width="3.2" height="3.2"/>
			
				<rect x="195.6" y="177.5" transform="matrix(0.462 -0.8869 0.8869 0.462 -52.7506 271.2289)" class="st10" width="3.2" height="3.2"/>
		</g>
	</g>
	<rect x="-0.1" y="-0.1" class="st11" width="300.2" height="300.2"/>
</g>
</svg>
