<?xml version="1.0" encoding="UTF-8"?>
<svg width="213px" height="74px" viewBox="0 0 213 74" version="1.1" xmlns="http://www.w3.org/2000/svg" xmlns:xlink="http://www.w3.org/1999/xlink">
    <title>sbLogo2coutline</title>
    <g id="sbLogo2coutline" stroke="none" stroke-width="1" fill="none" fill-rule="evenodd">
        <g id="salesBeat" transform="translate(14.050000, 18.248000)" fill-rule="nonzero">
            <path d="M12.558,17.178 C11.578,15.806 10.262,15.12 8.61,15.12 C7.938,15.12 7.28,15.288 6.636,15.624 C5.992,15.96 5.67,16.506 5.67,17.262 C5.67,17.878 5.936,18.326 6.468,18.606 C7,18.886 7.672,19.124 8.484,19.32 C9.296,19.516 10.171,19.719 11.109,19.929 C12.047,20.139 12.922,20.461 13.734,20.895 C14.546,21.329 15.218,21.924 15.75,22.68 C16.282,23.436 16.548,24.472 16.548,25.788 C16.548,26.992 16.289,28.007 15.771,28.833 C15.253,29.659 14.581,30.324 13.755,30.828 C12.929,31.332 11.998,31.696 10.962,31.92 C9.926,32.144 8.89,32.256 7.854,32.256 C6.286,32.256 4.844,32.032 3.528,31.584 C2.212,31.136 1.036,30.324 0,29.148 L3.36,25.998 C4.004,26.726 4.697,27.321 5.439,27.783 C6.181,28.245 7.084,28.476 8.148,28.476 C8.512,28.476 8.89,28.434 9.282,28.35 C9.674,28.266 10.038,28.126 10.374,27.93 C10.71,27.734 10.983,27.489 11.193,27.195 C11.403,26.901 11.508,26.558 11.508,26.166 C11.508,25.466 11.242,24.948 10.71,24.612 C10.178,24.276 9.506,24.003 8.694,23.793 C7.882,23.583 7.007,23.387 6.069,23.205 C5.131,23.023 4.256,22.729 3.444,22.323 C2.632,21.917 1.96,21.35 1.428,20.622 C0.896,19.894 0.63,18.886 0.63,17.598 C0.63,16.478 0.861,15.505 1.323,14.679 C1.785,13.853 2.394,13.174 3.15,12.642 C3.906,12.11 4.774,11.718 5.754,11.466 C6.734,11.214 7.728,11.088 8.736,11.088 C10.08,11.088 11.41,11.319 12.726,11.781 C14.042,12.243 15.106,13.034 15.918,14.154 L12.558,17.178 Z" id="Path" fill="#4B2F55"></path>
            <path d="M33.054,28.98 L32.928,28.98 C32.2,30.128 31.276,30.961 30.156,31.479 C29.036,31.997 27.804,32.256 26.46,32.256 C25.536,32.256 24.633,32.13 23.751,31.878 C22.869,31.626 22.085,31.248 21.399,30.744 C20.713,30.24 20.16,29.61 19.74,28.854 C19.32,28.098 19.11,27.216 19.11,26.208 C19.11,25.116 19.306,24.185 19.698,23.415 C20.09,22.645 20.615,22.001 21.273,21.483 C21.931,20.965 22.694,20.552 23.562,20.244 C24.43,19.936 25.333,19.705 26.271,19.551 C27.209,19.397 28.154,19.299 29.106,19.257 C30.058,19.215 30.954,19.194 31.794,19.194 L33.054,19.194 L33.054,18.648 C33.054,17.388 32.62,16.443 31.752,15.813 C30.884,15.183 29.778,14.868 28.434,14.868 C27.37,14.868 26.376,15.057 25.452,15.435 C24.528,15.813 23.73,16.324 23.058,16.968 L20.412,14.322 C21.532,13.174 22.841,12.348 24.339,11.844 C25.837,11.34 27.384,11.088 28.98,11.088 C30.408,11.088 31.612,11.249 32.592,11.571 C33.572,11.893 34.384,12.306 35.028,12.81 C35.672,13.314 36.169,13.895 36.519,14.553 C36.869,15.211 37.121,15.876 37.275,16.548 C37.429,17.22 37.52,17.871 37.548,18.501 C37.576,19.131 37.59,19.684 37.59,20.16 L37.59,31.752 L33.054,31.752 L33.054,28.98 Z M32.76,22.722 L31.71,22.722 C31.01,22.722 30.226,22.75 29.358,22.806 C28.49,22.862 27.671,22.995 26.901,23.205 C26.131,23.415 25.48,23.723 24.948,24.129 C24.416,24.535 24.15,25.102 24.15,25.83 C24.15,26.306 24.255,26.705 24.465,27.027 C24.675,27.349 24.948,27.622 25.284,27.846 C25.62,28.07 25.998,28.231 26.418,28.329 C26.838,28.427 27.258,28.476 27.678,28.476 C29.414,28.476 30.695,28.063 31.521,27.237 C32.347,26.411 32.76,25.284 32.76,23.856 L32.76,22.722 Z" id="Shape" fill="#4B2F55"></path>
            <polygon id="Path" fill="#4B2F55" points="43.092 0 48.132 0 48.132 31.752 43.092 31.752"></polygon>
            <path d="M57.96,23.436 C58.128,24.948 58.716,26.124 59.724,26.964 C60.732,27.804 61.95,28.224 63.378,28.224 C64.638,28.224 65.695,27.965 66.549,27.447 C67.403,26.929 68.152,26.278 68.796,25.494 L72.408,28.224 C71.232,29.68 69.916,30.716 68.46,31.332 C67.004,31.948 65.478,32.256 63.882,32.256 C62.37,32.256 60.942,32.004 59.598,31.5 C58.254,30.996 57.092,30.282 56.112,29.358 C55.132,28.434 54.355,27.321 53.781,26.019 C53.207,24.717 52.92,23.268 52.92,21.672 C52.92,20.076 53.207,18.627 53.781,17.325 C54.355,16.023 55.132,14.91 56.112,13.986 C57.092,13.062 58.254,12.348 59.598,11.844 C60.942,11.34 62.37,11.088 63.882,11.088 C65.282,11.088 66.563,11.333 67.725,11.823 C68.887,12.313 69.881,13.02 70.707,13.944 C71.533,14.868 72.177,16.009 72.639,17.367 C73.101,18.725 73.332,20.286 73.332,22.05 L73.332,23.436 L57.96,23.436 Z M68.292,19.656 C68.264,18.172 67.802,17.003 66.906,16.149 C66.01,15.295 64.764,14.868 63.168,14.868 C61.656,14.868 60.459,15.302 59.577,16.17 C58.695,17.038 58.156,18.2 57.96,19.656 L68.292,19.656 Z" id="Shape" fill="#4B2F55"></path>
            <path d="M88.788,17.178 C87.808,15.806 86.492,15.12 84.84,15.12 C84.168,15.12 83.51,15.288 82.866,15.624 C82.222,15.96 81.9,16.506 81.9,17.262 C81.9,17.878 82.166,18.326 82.698,18.606 C83.23,18.886 83.902,19.124 84.714,19.32 C85.526,19.516 86.401,19.719 87.339,19.929 C88.277,20.139 89.152,20.461 89.964,20.895 C90.776,21.329 91.448,21.924 91.98,22.68 C92.512,23.436 92.778,24.472 92.778,25.788 C92.778,26.992 92.519,28.007 92.001,28.833 C91.483,29.659 90.811,30.324 89.985,30.828 C89.159,31.332 88.228,31.696 87.192,31.92 C86.156,32.144 85.12,32.256 84.084,32.256 C82.516,32.256 81.074,32.032 79.758,31.584 C78.442,31.136 77.266,30.324 76.23,29.148 L79.59,25.998 C80.234,26.726 80.927,27.321 81.669,27.783 C82.411,28.245 83.314,28.476 84.378,28.476 C84.742,28.476 85.12,28.434 85.512,28.35 C85.904,28.266 86.268,28.126 86.604,27.93 C86.94,27.734 87.213,27.489 87.423,27.195 C87.633,26.901 87.738,26.558 87.738,26.166 C87.738,25.466 87.472,24.948 86.94,24.612 C86.408,24.276 85.736,24.003 84.924,23.793 C84.112,23.583 83.237,23.387 82.299,23.205 C81.361,23.023 80.486,22.729 79.674,22.323 C78.862,21.917 78.19,21.35 77.658,20.622 C77.126,19.894 76.86,18.886 76.86,17.598 C76.86,16.478 77.091,15.505 77.553,14.679 C78.015,13.853 78.624,13.174 79.38,12.642 C80.136,12.11 81.004,11.718 81.984,11.466 C82.964,11.214 83.958,11.088 84.966,11.088 C86.31,11.088 87.64,11.319 88.956,11.781 C90.272,12.243 91.336,13.034 92.148,14.154 L88.788,17.178 Z" id="Path" fill="#4B2F55"></path>
            <path d="M97.146,2.016 L108.738,2.016 C109.858,2.016 110.964,2.149 112.056,2.415 C113.148,2.681 114.121,3.115 114.975,3.717 C115.829,4.319 116.522,5.096 117.054,6.048 C117.586,7 117.852,8.148 117.852,9.492 C117.852,11.172 117.376,12.558 116.424,13.65 C115.472,14.742 114.226,15.526 112.686,16.002 L112.686,16.086 C113.61,16.198 114.471,16.457 115.269,16.863 C116.067,17.269 116.746,17.787 117.306,18.417 C117.866,19.047 118.307,19.775 118.629,20.601 C118.951,21.427 119.112,22.316 119.112,23.268 C119.112,24.892 118.79,26.243 118.146,27.321 C117.502,28.399 116.655,29.267 115.605,29.925 C114.555,30.583 113.351,31.052 111.993,31.332 C110.635,31.612 109.256,31.752 107.856,31.752 L97.146,31.752 L97.146,2.016 Z M102.438,14.112 L107.268,14.112 C109.032,14.112 110.355,13.769 111.237,13.083 C112.119,12.397 112.56,11.494 112.56,10.374 C112.56,9.086 112.105,8.127 111.195,7.497 C110.285,6.867 108.822,6.552 106.806,6.552 L102.438,6.552 L102.438,14.112 Z M102.438,27.216 L107.31,27.216 C107.982,27.216 108.703,27.174 109.473,27.09 C110.243,27.006 110.95,26.81 111.594,26.502 C112.238,26.194 112.77,25.753 113.19,25.179 C113.61,24.605 113.82,23.828 113.82,22.848 C113.82,21.28 113.309,20.188 112.287,19.572 C111.265,18.956 109.676,18.648 107.52,18.648 L102.438,18.648 L102.438,27.216 Z" id="Shape" fill="#A97DA2"></path>
            <path d="M127.932,23.436 C128.1,24.948 128.688,26.124 129.696,26.964 C130.704,27.804 131.922,28.224 133.35,28.224 C134.61,28.224 135.667,27.965 136.521,27.447 C137.375,26.929 138.124,26.278 138.768,25.494 L142.38,28.224 C141.204,29.68 139.888,30.716 138.432,31.332 C136.976,31.948 135.45,32.256 133.854,32.256 C132.342,32.256 130.914,32.004 129.57,31.5 C128.226,30.996 127.064,30.282 126.084,29.358 C125.104,28.434 124.327,27.321 123.753,26.019 C123.179,24.717 122.892,23.268 122.892,21.672 C122.892,20.076 123.179,18.627 123.753,17.325 C124.327,16.023 125.104,14.91 126.084,13.986 C127.064,13.062 128.226,12.348 129.57,11.844 C130.914,11.34 132.342,11.088 133.854,11.088 C135.254,11.088 136.535,11.333 137.697,11.823 C138.859,12.313 139.853,13.02 140.679,13.944 C141.505,14.868 142.149,16.009 142.611,17.367 C143.073,18.725 143.304,20.286 143.304,22.05 L143.304,23.436 L127.932,23.436 Z M138.264,19.656 C138.236,18.172 137.774,17.003 136.878,16.149 C135.982,15.295 134.736,14.868 133.14,14.868 C131.628,14.868 130.431,15.302 129.549,16.17 C128.667,17.038 128.128,18.2 127.932,19.656 L138.264,19.656 Z" id="Shape" fill="#A97DA2"></path>
            <path d="M160.608,28.98 L160.482,28.98 C159.754,30.128 158.83,30.961 157.71,31.479 C156.59,31.997 155.358,32.256 154.014,32.256 C153.09,32.256 152.187,32.13 151.305,31.878 C150.423,31.626 149.639,31.248 148.953,30.744 C148.267,30.24 147.714,29.61 147.294,28.854 C146.874,28.098 146.664,27.216 146.664,26.208 C146.664,25.116 146.86,24.185 147.252,23.415 C147.644,22.645 148.169,22.001 148.827,21.483 C149.485,20.965 150.248,20.552 151.116,20.244 C151.984,19.936 152.887,19.705 153.825,19.551 C154.763,19.397 155.708,19.299 156.66,19.257 C157.612,19.215 158.508,19.194 159.348,19.194 L160.608,19.194 L160.608,18.648 C160.608,17.388 160.174,16.443 159.306,15.813 C158.438,15.183 157.332,14.868 155.988,14.868 C154.924,14.868 153.93,15.057 153.006,15.435 C152.082,15.813 151.284,16.324 150.612,16.968 L147.966,14.322 C149.086,13.174 150.395,12.348 151.893,11.844 C153.391,11.34 154.938,11.088 156.534,11.088 C157.962,11.088 159.166,11.249 160.146,11.571 C161.126,11.893 161.938,12.306 162.582,12.81 C163.226,13.314 163.723,13.895 164.073,14.553 C164.423,15.211 164.675,15.876 164.829,16.548 C164.983,17.22 165.074,17.871 165.102,18.501 C165.13,19.131 165.144,19.684 165.144,20.16 L165.144,31.752 L160.608,31.752 L160.608,28.98 Z M160.314,22.722 L159.264,22.722 C158.564,22.722 157.78,22.75 156.912,22.806 C156.044,22.862 155.225,22.995 154.455,23.205 C153.685,23.415 153.034,23.723 152.502,24.129 C151.97,24.535 151.704,25.102 151.704,25.83 C151.704,26.306 151.809,26.705 152.019,27.027 C152.229,27.349 152.502,27.622 152.838,27.846 C153.174,28.07 153.552,28.231 153.972,28.329 C154.392,28.427 154.812,28.476 155.232,28.476 C156.968,28.476 158.249,28.063 159.075,27.237 C159.901,26.411 160.314,25.284 160.314,23.856 L160.314,22.722 Z" id="Shape" fill="#A97DA2"></path>
            <path d="M168.21,15.876 L168.21,11.592 L172.368,11.592 L172.368,5.754 L177.408,5.754 L177.408,11.592 L182.952,11.592 L182.952,15.876 L177.408,15.876 L177.408,24.696 C177.408,25.704 177.597,26.502 177.975,27.09 C178.353,27.678 179.102,27.972 180.222,27.972 C180.67,27.972 181.16,27.923 181.692,27.825 C182.224,27.727 182.644,27.566 182.952,27.342 L182.952,31.584 C182.42,31.836 181.769,32.011 180.999,32.109 C180.229,32.207 179.55,32.256 178.962,32.256 C177.618,32.256 176.519,32.109 175.665,31.815 C174.811,31.521 174.139,31.073 173.649,30.471 C173.159,29.869 172.823,29.12 172.641,28.224 C172.459,27.328 172.368,26.292 172.368,25.116 L172.368,15.876 L168.21,15.876 Z" id="Path" fill="#A97DA2"></path>
        </g>
    </g>
</svg>